<svg width="24" height="24" viewBox="0 0 24 24" fill="none" xmlns="http://www.w3.org/2000/svg">
<rect width="24" height="24" rx="2" fill="#E44F48"/>
<mask id="path-2-inside-1_14_2065" fill="white">
<rect x="10" y="4" width="4" height="3" rx="0.5"/>
</mask>
<rect x="10" y="4" width="4" height="3" rx="0.5" stroke="white" stroke-width="2" mask="url(#path-2-inside-1_14_2065)"/>
<mask id="path-3-inside-2_14_2065" fill="white">
<rect x="6" y="10" width="3" height="3" rx="0.5"/>
</mask>
<rect x="6" y="10" width="3" height="3" rx="0.5" stroke="white" stroke-width="2" mask="url(#path-3-inside-2_14_2065)"/>
<mask id="path-4-inside-3_14_2065" fill="white">
<rect x="4" y="17" width="3" height="3" rx="0.5"/>
</mask>
<rect x="4" y="17" width="3" height="3" rx="0.5" stroke="white" stroke-width="2" mask="url(#path-4-inside-3_14_2065)"/>
<mask id="path-5-inside-4_14_2065" fill="white">
<rect x="8" y="17" width="3" height="3" rx="0.5"/>
</mask>
<rect x="8" y="17" width="3" height="3" rx="0.5" stroke="white" stroke-width="2" mask="url(#path-5-inside-4_14_2065)"/>
<mask id="path-6-inside-5_14_2065" fill="white">
<rect x="13" y="17" width="3" height="3" rx="0.5"/>
</mask>
<rect x="13" y="17" width="3" height="3" rx="0.5" stroke="white" stroke-width="2" mask="url(#path-6-inside-5_14_2065)"/>
<mask id="path-7-inside-6_14_2065" fill="white">
<rect x="17" y="17" width="3" height="3" rx="0.5"/>
</mask>
<rect x="17" y="17" width="3" height="3" rx="0.5" stroke="white" stroke-width="2" mask="url(#path-7-inside-6_14_2065)"/>
<mask id="path-8-inside-7_14_2065" fill="white">
<rect x="15" y="10" width="3" height="3" rx="0.5"/>
</mask>
<rect x="15" y="10" width="3" height="3" rx="0.5" stroke="white" stroke-width="2" mask="url(#path-8-inside-7_14_2065)"/>
<path d="M12 7V8.5M12 8.5H15.5C16.0523 8.5 16.5 8.94772 16.5 9.5V10M12 8.5H8.5C7.94772 8.5 7.5 8.94772 7.5 9.5V10" stroke="white" stroke-linecap="round"/>
<path d="M16.5 12.5V15M16.5 15H17.5C18.0523 15 18.5 15.4477 18.5 16V17.5M16.5 15H15.5C14.9477 15 14.5 15.4477 14.5 16V17.5" stroke="white" stroke-linecap="round"/>
<path d="M7.5 12.5V15M7.5 15H8.5C9.05228 15 9.5 15.4477 9.5 16V17.5M7.5 15H6.5C5.94772 15 5.5 15.4477 5.5 16V17.5" stroke="white" stroke-linecap="round"/>
</svg>
