<svg width="24" height="24" viewBox="0 0 24 24" fill="none" xmlns="http://www.w3.org/2000/svg">
<rect width="24" height="24" rx="2" fill="#73C995"/>
<path d="M6.9 20.5H17.1C17.8851 20.5 18.5 19.8509 18.5 19.0769V13.8462V11.6923V11.3846C18.5 7.04207 15.0645 3.5 10.8 3.5H10.5H9H6.9C6.11494 3.5 5.5 4.14914 5.5 4.92308V19.0769C5.5 19.8509 6.11494 20.5 6.9 20.5Z" stroke="white" stroke-linecap="round" stroke-linejoin="round"/>
<path d="M18.5 11.1923C18.5 9.6629 17.2912 8.42308 15.8 8.42308H14.6C14.1029 8.42308 13.7 8.0098 13.7 7.5V6.26923C13.7 4.73983 12.4912 3.5 11 3.5" stroke="white" stroke-linecap="round" stroke-linejoin="round"/>
<path d="M9 14.5H15" stroke="white" stroke-linecap="round"/>
<path d="M9 17.5H12" stroke="white" stroke-linecap="round"/>
</svg>
