<svg xmlns="http://www.w3.org/2000/svg" xmlns:xlink="http://www.w3.org/1999/xlink" contentStyleType="text/css" height="140px" preserveAspectRatio="none" style="width:349px;height:140px;background:#FFFFFF;" version="1.1" viewBox="0 0 349 140" width="349px" zoomAndPan="magnify"><defs/><g><text fill="#000000" font-family="sans-serif" font-size="12" lengthAdjust="spacing" textLength="46.3828" x="6" y="17.1387">&#1059;&#1089;&#1083;&#1091;&#1075;&#1072;:</text><text fill="#0000FF" font-family="sans-serif" font-size="12" lengthAdjust="spacing" textLength="94.6348" x="52.3828" y="17.1387">&#1041;&#1080;&#1083;&#1072;&#1081;&#1085; &#1041;&#1050;  &#1076;/&#1073;</text><text fill="#000000" font-family="sans-serif" font-size="12" lengthAdjust="spacing" textLength="99.5684" x="6" y="33.1074">&#1054;&#1087;&#1083;&#1072;&#1090;&#1072; &#1089; &#1082;&#1072;&#1088;&#1090;&#1099;</text><polygon fill="#EEEEEE" points="191.8145,21.9688,191.8145,22.1789,202.0287,21.5544,212.243,22.162,222.4573,22.3684,232.6716,21.2554,242.8859,21.891,253.1002,21.5423,263.3145,21.5853,273.5287,21.9006,283.743,21.2774,293.9573,22.5224,304.1716,21.3385,314.3859,21.771,324.6002,22.4007,334.8145,21.9688,334.7859,21.9688,334.8372,25.3625,334.8038,28.7563,334.874,32.15,334.8942,35.5438,334.8145,38.9375,334.8145,39.5232,324.6002,39.6086,314.3859,39.6168,304.1716,39.1921,293.9573,39.4011,283.743,39.6397,273.5287,38.2163,263.3145,39.616,253.1002,38.641,242.8859,39.4713,232.6716,38.4425,222.4573,38.869,212.243,39.6791,202.0287,38.8888,191.8145,38.9375,191.8496,38.9375,191.9273,35.5438,191.9532,32.15,191.8132,28.7563,191.9102,25.3625,191.8145,21.9688" style="stroke:#000000;stroke-width:1.0;"/><text fill="#000000" font-family="sans-serif" font-size="12" lengthAdjust="spacing" textLength="113.0918" x="193.8145" y="35.1074">&#1050;&#1072;&#1088;&#1090;&#1072; 22202***01</text><path d="M323.8145,21.9688 L323.9079,21.9688 L323.6303,25.3625 L323.9004,28.7563 L323.9921,32.15 L323.4974,35.5438 L323.8145,38.9375 " fill="none" style="stroke:#000000;stroke-width:1.0;"/><polygon fill="#000000" points="326.8145,27.9688,326.8145,28.0388,328.0145,27.8306,329.2145,28.0332,330.4145,28.102,331.6145,27.731,332.8145,27.9688,332.7913,27.9571,332.0874,29.0987,331.5002,30.2988,330.9942,31.5398,330.2085,32.6403,329.8145,33.9375,329.9793,34.0204,329.0267,32.6494,328.5556,31.5204,328.1431,30.4209,327.3889,29.1497,326.8145,27.9688" style="stroke:#000000;stroke-width:1.0;"/><text fill="#000000" font-family="sans-serif" font-size="12" lengthAdjust="spacing" textLength="166.3477" x="6" y="53.0762">&#1053;&#1086;&#1084;&#1077;&#1088; &#1090;&#1077;&#1083;&#1077;&#1092;&#1086;&#1085;&#1072; (&#1073;&#1077;&#1079; +7):</text><text fill="#9A9A9A" font-family="sans-serif" font-size="12" lengthAdjust="spacing" textLength="76.3477" x="194.8145" y="53.0762">9206526152</text><path d="M192.8145,55.9063 L192.8145,56.1865 L203.1895,55.3538 L213.5645,56.164 L223.9395,56.4392 L234.3145,54.9551 L244.6895,55.8026 L255.0645,55.3376 L265.4395,55.3949 L275.8145,55.9063 " fill="none" style="stroke:#000000;stroke-width:1.0;"/><path d="M192.8145,52.9063 L192.9079,52.9063 L192.6303,53.3063 L192.9004,53.7063 L192.9921,54.1063 L192.4974,54.5063 L192.8145,54.9063 " fill="none" style="stroke:#000000;stroke-width:1.0;"/><path d="M275.8145,52.9063 L275.9079,52.9063 L275.6303,53.3063 L275.9004,53.7063 L275.9921,54.1063 L275.4974,54.5063 L275.8145,54.9063 " fill="none" style="stroke:#000000;stroke-width:1.0;"/><text fill="#000000" font-family="sans-serif" font-size="12" lengthAdjust="spacing" textLength="78.5449" x="6" y="71.0449">&#1057;&#1091;&#1084;&#1084;&#1072;, &#1088;&#1091;&#1073;.:</text><text fill="#9A9A9A" font-family="sans-serif" font-size="12" lengthAdjust="spacing" textLength="30.5391" x="194.8145" y="71.0449">1000</text><path d="M192.8145,73.875 L192.8145,74.1552 L203.0145,73.3226 L213.2145,74.1327 L223.4145,74.4079 L233.6145,72.9238 L243.8145,73.875 " fill="none" style="stroke:#000000;stroke-width:1.0;"/><path d="M192.8145,70.875 L192.9079,70.875 L192.6303,71.275 L192.9004,71.675 L192.9921,72.075 L192.4974,72.475 L192.8145,72.875 " fill="none" style="stroke:#000000;stroke-width:1.0;"/><path d="M243.8145,70.875 L243.9079,70.875 L243.6303,71.275 L243.9004,71.675 L243.9921,72.075 L243.4974,72.475 L243.8145,72.875 " fill="none" style="stroke:#000000;stroke-width:1.0;"/><text fill="#000000" font-family="sans-serif" font-size="12" lengthAdjust="spacing" textLength="183.8145" x="6" y="89.0137">&#1057;&#1091;&#1084;&#1084;&#1072; &#1082; &#1086;&#1087;&#1083;&#1072;&#1090;&#1077;: 1005.00&#1088;&#1091;&#1073;.</text><text fill="#000000" font-family="sans-serif" font-size="12" lengthAdjust="spacing" textLength="121.4355" x="6" y="104.9824">&#1050;&#1086;&#1084;&#1080;&#1089;&#1089;&#1080;&#1103;: 5.00&#1088;&#1091;&#1073;.</text><polygon fill="#EEEEEE" points="13.5,112.3125,13.5,112.5227,23.3571,111.8982,33.2143,112.5058,43.0714,112.7122,52.9286,111.5991,62.7857,112.2348,72.6429,111.886,82.5,111.929,92.3571,112.2443,102.2143,111.6211,112.0714,112.8661,121.9286,111.6822,131.7857,112.1147,141.6429,112.7444,151.5,112.3125,151.4891,112.2861,152.2158,112.6264,152.9101,112.8884,153.6441,113.2462,154.3589,113.5577,155.0355,113.777,155.2159,113.8517,155.5351,114.5697,155.8305,115.2778,155.9926,115.9308,156.3499,116.6645,156.5,117.3125,156.7341,117.3125,156.2596,118.9063,156.7262,120.5,156.4012,122.0938,156.6779,123.6875,156.5,125.2813,156.3476,125.2181,156.186,125.9796,156.1426,126.7901,155.6063,127.3964,155.3609,128.1231,155.0355,128.8168,155.0787,128.9211,154.3815,129.2379,153.6208,129.4014,152.9509,129.7839,152.1341,129.8121,151.5,130.2813,151.5,130.5656,141.6429,130.8294,131.7857,130.7258,121.9286,130.8943,112.0714,129.7982,102.2143,129.6291,92.3571,129.6598,82.5,130.2224,72.6429,130.0847,62.7857,130.9627,52.9286,130.1066,43.0714,129.9382,33.2143,130.5095,23.3571,129.6144,13.5,130.2813,13.4338,130.1214,12.8757,130.1882,12.1414,129.8296,11.4724,129.6288,10.6305,129.0106,9.9645,128.8168,10.0628,128.8575,9.8534,128.185,9.2332,127.3423,9.0563,126.6832,8.8317,126.0044,8.5,125.2813,8.7173,125.2813,8.4986,123.6875,8.6542,122.0938,8.3154,120.5,8.2742,118.9063,8.5,117.3125,8.6551,117.3767,8.5721,116.5139,9.2425,115.9632,9.4423,115.2175,9.5891,114.4499,9.9645,113.777,9.9193,113.668,10.7301,113.6254,11.3405,113.099,12.1613,113.0806,12.7224,112.4352,13.5,112.3125" style="stroke:#000000;stroke-width:2.5;"/><text fill="#000000" font-family="sans-serif" font-size="12" lengthAdjust="spacing" textLength="93" x="36" y="125.4512">&#1053;&#1072;&#1095;&#1072;&#1090;&#1100; &#1086;&#1087;&#1083;&#1072;&#1090;&#1091;</text><path d="M5,5 L5,5.2802 L14.7797,4.4476 L24.5594,5.2577 L34.3391,5.5329 L44.1188,4.0488 L53.8985,4.8964 L63.6782,4.4313 L73.458,4.4887 L83.2377,4.9091 L93.0174,4.0782 L102.7971,5.7382 L112.5768,4.1596 L122.3565,4.7363 L132.1362,5.5759 L141.9159,4.8856 L151.6956,5.091 L161.4753,4.9574 L171.255,5.238 L181.0347,5.3188 L190.8145,5 " fill="none" style="stroke:#000000;stroke-width:1.0;"/><path d="M190.8145,5 L190.8145,5.2802 L200.5478,4.4476 L210.2811,5.2577 L220.0145,5.5329 L229.7478,4.0488 L239.4811,4.8964 L249.2145,4.4313 L258.9478,4.4887 L268.6811,4.9091 L278.4145,4.0782 L288.1478,5.7382 L297.8811,4.1596 L307.6145,4.7363 L317.3478,5.5759 L327.0811,4.8856 L336.8145,5 " fill="none" style="stroke:#000000;stroke-width:1.0;"/><path d="M5,133.7813 L5,134.0615 L14.7797,133.2288 L24.5594,134.039 L34.3391,134.3142 L44.1188,132.8301 L53.8985,133.6776 L63.6782,133.2126 L73.458,133.2699 L83.2377,133.6904 L93.0174,132.8594 L102.7971,134.5194 L112.5768,132.9409 L122.3565,133.5176 L132.1362,134.3572 L141.9159,133.6669 L151.6956,133.8722 L161.4753,133.7387 L171.255,134.0193 L181.0347,134.1001 L190.8145,133.7813 " fill="none" style="stroke:#000000;stroke-width:1.0;"/><path d="M190.8145,133.7813 L190.8145,134.0615 L200.5478,133.2288 L210.2811,134.039 L220.0145,134.3142 L229.7478,132.8301 L239.4811,133.6776 L249.2145,133.2126 L258.9478,133.2699 L268.6811,133.6904 L278.4145,132.8594 L288.1478,134.5194 L297.8811,132.9409 L307.6145,133.5176 L317.3478,134.3572 L327.0811,133.6669 L336.8145,133.7813 " fill="none" style="stroke:#000000;stroke-width:1.0;"/><path d="M5,5 L5.0934,5 L4.8159,8.1938 L5.0859,11.3875 L5.1776,14.5813 L4.6829,17.775 L5,20.9688 " fill="none" style="stroke:#000000;stroke-width:1.0;"/><path d="M336.8145,40.9375 L336.9079,40.9375 L336.6303,44.5313 L336.9004,48.125 L336.9921,51.7188 L336.4974,55.3125 L336.8145,58.9063 " fill="none" style="stroke:#000000;stroke-width:1.0;"/><path d="M336.8145,5 L336.9079,5 L336.6303,8.1938 L336.9004,11.3875 L336.9921,14.5813 L336.4974,17.775 L336.8145,20.9688 " fill="none" style="stroke:#000000;stroke-width:1.0;"/><path d="M5,92.8438 L5.0934,92.8438 L4.8159,96.0375 L5.0859,99.2313 L5.1776,102.425 L4.6829,105.6188 L5,108.8125 " fill="none" style="stroke:#000000;stroke-width:1.0;"/><path d="M5,58.9063 L5.0934,58.9063 L4.8159,62.5 L5.0859,66.0938 L5.1776,69.6875 L4.6829,73.2813 L5,76.875 " fill="none" style="stroke:#000000;stroke-width:1.0;"/><path d="M336.8145,92.8438 L336.9079,92.8438 L336.6303,96.0375 L336.9004,99.2313 L336.9921,102.425 L336.4974,105.6188 L336.8145,108.8125 " fill="none" style="stroke:#000000;stroke-width:1.0;"/><path d="M5,20.9688 L5.0934,20.9688 L4.8159,24.9625 L5.0859,28.9563 L5.1776,32.95 L4.6829,36.9438 L5,40.9375 " fill="none" style="stroke:#000000;stroke-width:1.0;"/><path d="M336.8145,58.9063 L336.9079,58.9063 L336.6303,62.5 L336.9004,66.0938 L336.9921,69.6875 L336.4974,73.2813 L336.8145,76.875 " fill="none" style="stroke:#000000;stroke-width:1.0;"/><path d="M336.8145,20.9688 L336.9079,20.9688 L336.6303,24.9625 L336.9004,28.9563 L336.9921,32.95 L336.4974,36.9438 L336.8145,40.9375 " fill="none" style="stroke:#000000;stroke-width:1.0;"/><path d="M5,108.8125 L5.0934,108.8125 L4.8159,113.8063 L5.0859,118.8 L5.1776,123.7938 L4.6829,128.7875 L5,133.7813 " fill="none" style="stroke:#000000;stroke-width:1.0;"/><path d="M5,76.875 L5.0934,76.875 L4.8159,80.0688 L5.0859,83.2625 L5.1776,86.4563 L4.6829,89.65 L5,92.8438 " fill="none" style="stroke:#000000;stroke-width:1.0;"/><path d="M336.8145,108.8125 L336.9079,108.8125 L336.6303,113.8063 L336.9004,118.8 L336.9921,123.7938 L336.4974,128.7875 L336.8145,133.7813 " fill="none" style="stroke:#000000;stroke-width:1.0;"/><path d="M5,40.9375 L5.0934,40.9375 L4.8159,44.5313 L5.0859,48.125 L5.1776,51.7188 L4.6829,55.3125 L5,58.9063 " fill="none" style="stroke:#000000;stroke-width:1.0;"/><path d="M336.8145,76.875 L336.9079,76.875 L336.6303,80.0688 L336.9004,83.2625 L336.9921,86.4563 L336.4974,89.65 L336.8145,92.8438 " fill="none" style="stroke:#000000;stroke-width:1.0;"/><!--SRC=[PL1VQnD147-VJp74boIryN8qgJsab5eLOeB5chw8XMsongMNtR2tbrACq3I5FYY8hmK5yGjSq62qhNw5sM_adBQq8FEoCxy_yzjPIvomBX6nWzSBaEmfFH1MzF6LqDrzgvoJ6frD9G0YVV5ZElCJ-afPTAzZOcEZzJYLg_I1vdH66VsW2-JcbBdVxj0Ka3xHxnpnHvIX7oFzvFUXF_9lSOGxTFglOomCmo0ibyj1TGTu5tsaNtHECt-83C_OOkQFUNJ1r29DUV8T5vPBqQXmcUFMYiXhTIKCwhMmNgs51NRvp67FkRBRo7icDAtyhwW6GO1OW6iofqJUTHLy5Y5pQfKWkFG0pfsdc_in7sJktqTu4ntXSym_aFcJNE_VtJ3p4qHy0MzWJUhktwl3PYoqQxUQE9GsKKPZjSAdMAeixqedQiMstjDcNsF7z0SgbkXKNvQW-6YpYOb9RKTYLoNEgjtKiRW43J4K-3JLEI_29mEf6nkFhmRuG0-LDReljOF6TkkQK5zQN5SEjwJb6BZTWWtvKgInOqN7T9NkHTX-zd3nBZI5xgMYnzvImtt3llQ0iQq_]--></g></svg>