<svg xmlns="http://www.w3.org/2000/svg" xmlns:xlink="http://www.w3.org/1999/xlink" contentStyleType="text/css" height="72px" preserveAspectRatio="none" style="width:287px;height:72px;background:#FFFFFF;" version="1.1" viewBox="0 0 287 72" width="287px" zoomAndPan="magnify"><defs/><g><text fill="#0000FF" font-family="sans-serif" font-size="12" lengthAdjust="spacing" textLength="107.9707" x="6" y="17.1387">&#1042;&#1099;&#1073;&#1077;&#1088;&#1080;&#1090;&#1077; &#1091;&#1089;&#1083;&#1091;&#1075;&#1091;</text><text fill="#000000" font-family="sans-serif" font-size="12" lengthAdjust="spacing" textLength="42.3398" x="6" y="33.1074">&#1059;&#1089;&#1083;&#1091;&#1075;&#1072;</text><polygon fill="#EEEEEE" points="145,21.9688,145,22.1789,154.7692,21.5544,164.5385,22.162,174.3077,22.3684,184.0769,21.2554,193.8462,21.891,203.6154,21.5423,213.3846,21.5853,223.1538,21.9006,232.9231,21.2774,242.6923,22.5224,252.4615,21.3385,262.2308,21.771,272,21.9688,272.144,21.9688,271.9714,25.3625,272.0227,28.7563,271.9894,32.15,272.0595,35.5438,272,38.9375,272,39.1766,262.2308,39.5232,252.4615,39.6086,242.6923,39.6168,232.9231,39.1921,223.1538,39.4011,213.3846,39.6397,203.6154,38.2163,193.8462,39.616,184.0769,38.641,174.3077,39.4713,164.5385,38.4425,154.7692,38.869,145,38.9375,145.2472,38.9375,144.9838,35.5438,145.0351,32.15,145.1129,28.7563,145.1387,25.3625,145,21.9688" style="stroke:#000000;stroke-width:1.0;"/><text fill="#000000" font-family="sans-serif" font-size="12" lengthAdjust="spacing" textLength="94.6348" x="147" y="35.1074">&#1041;&#1080;&#1083;&#1072;&#1081;&#1085; &#1041;&#1050;  &#1076;/&#1073;</text><path d="M261,21.9688 L261.0934,21.9688 L260.8159,25.3625 L261.0859,28.7563 L261.1776,32.15 L260.6829,35.5438 L261,38.9375 " fill="none" style="stroke:#000000;stroke-width:1.0;"/><polygon fill="#000000" points="264,27.9688,264,28.0388,265.2,27.8306,266.4,28.0332,267.6,28.102,268.8,27.731,270,27.9688,269.9769,27.9571,269.273,29.0987,268.6858,30.2988,268.1797,31.5398,267.3941,32.6403,267,33.9375,267.1649,34.0204,266.2123,32.6494,265.7411,31.5204,265.3286,30.4209,264.5745,29.1497,264,27.9688" style="stroke:#000000;stroke-width:1.0;"/><polygon fill="#EEEEEE" points="13.5,44.4375,13.5,44.6477,23.6667,44.0232,33.8333,44.6308,44,44.8372,54.1667,43.7241,64.3333,44.3598,74.5,44.011,84.6667,44.054,94.8333,44.3693,105,43.7461,115.1667,44.9911,125.3333,43.8072,135.5,44.4375,135.4748,44.3766,136.2622,44.8634,136.9033,44.9969,137.63,45.3372,138.3244,45.5992,139.0355,45.902,139.0905,45.9247,139.4021,46.6396,139.8017,47.3909,140.1209,48.1089,140.4163,48.817,140.5,49.4375,140.5849,49.4375,140.6545,51.0313,140.7341,52.625,140.2596,54.2188,140.7262,55.8125,140.5,57.4063,140.4087,57.3684,140.3715,58.1815,139.7618,58.7573,139.6002,59.5188,139.5568,60.3293,139.0355,60.9418,139.0293,60.9268,138.3419,61.2671,137.6645,61.6319,136.9673,61.9486,136.2066,62.1122,135.5,62.4063,135.5,62.6935,125.3333,61.8338,115.1667,62.6906,105,62.9544,94.8333,62.8508,84.6667,63.0193,74.5,61.9232,64.3333,61.7541,54.1667,61.7848,44,62.3474,33.8333,62.2097,23.6667,63.0877,13.5,62.4063,13.4777,62.3525,12.7491,62.0077,12.1149,61.8908,11.2936,61.3222,10.6054,61.0748,9.9645,60.9418,10.1643,61.0246,9.8057,60.2903,9.6049,59.6213,8.9867,58.7794,8.8912,58.1541,8.5,57.4063,8.6968,57.4063,8.3425,55.8125,8.468,54.2188,8.542,52.625,8.7173,51.0313,8.5,49.4375,8.4987,49.437,8.9353,48.7894,8.9152,47.9526,9.1701,47.2298,9.8267,46.6733,9.9645,45.902,9.873,45.6812,10.7365,45.7658,11.405,45.3798,12.0516,44.9408,12.7478,44.6214,13.5,44.4375" style="stroke:#000000;stroke-width:2.5;"/><text fill="#000000" font-family="sans-serif" font-size="12" lengthAdjust="spacing" textLength="93" x="28" y="57.5762">&#1053;&#1072;&#1095;&#1072;&#1090;&#1100; &#1086;&#1087;&#1083;&#1072;&#1090;&#1091;</text><path d="M5,5 L5,5.2802 L14.9286,4.4476 L24.8571,5.2577 L34.7857,5.5329 L44.7143,4.0488 L54.6429,4.8964 L64.5714,4.4313 L74.5,4.4887 L84.4286,4.9091 L94.3571,4.0782 L104.2857,5.7382 L114.2143,4.1596 L124.1429,4.7363 L134.0714,5.5759 L144,5 " fill="none" style="stroke:#000000;stroke-width:1.0;"/><path d="M144,5 L144,5.2802 L154,4.4476 L164,5.2577 L174,5.5329 L184,4.0488 L194,4.8964 L204,4.4313 L214,4.4887 L224,4.9091 L234,4.0782 L244,5.7382 L254,4.1596 L264,4.7363 L274,5 " fill="none" style="stroke:#000000;stroke-width:1.0;"/><path d="M5,65.9063 L5,66.1865 L14.9286,65.3538 L24.8571,66.164 L34.7857,66.4392 L44.7143,64.9551 L54.6429,65.8026 L64.5714,65.3376 L74.5,65.3949 L84.4286,65.8154 L94.3571,64.9844 L104.2857,66.6444 L114.2143,65.0659 L124.1429,65.6426 L134.0714,66.4822 L144,65.9063 " fill="none" style="stroke:#000000;stroke-width:1.0;"/><path d="M144,65.9063 L144,66.1865 L154,65.3538 L164,66.164 L174,66.4392 L184,64.9551 L194,65.8026 L204,65.3376 L214,65.3949 L224,65.8154 L234,64.9844 L244,66.6444 L254,65.0659 L264,65.6426 L274,65.9063 " fill="none" style="stroke:#000000;stroke-width:1.0;"/><path d="M5,5 L5.0934,5 L4.8159,8.1938 L5.0859,11.3875 L5.1776,14.5813 L4.6829,17.775 L5,20.9688 " fill="none" style="stroke:#000000;stroke-width:1.0;"/><path d="M274,40.9375 L274.0934,40.9375 L273.8159,45.9313 L274.0859,50.925 L274.1776,55.9188 L273.6829,60.9125 L274,65.9063 " fill="none" style="stroke:#000000;stroke-width:1.0;"/><path d="M274,20.9688 L274.0934,20.9688 L273.8159,24.9625 L274.0859,28.9563 L274.1776,32.95 L273.6829,36.9438 L274,40.9375 " fill="none" style="stroke:#000000;stroke-width:1.0;"/><path d="M274,5 L274.0934,5 L273.8159,8.1938 L274.0859,11.3875 L274.1776,14.5813 L273.6829,17.775 L274,20.9688 " fill="none" style="stroke:#000000;stroke-width:1.0;"/><path d="M5,40.9375 L5.0934,40.9375 L4.8159,45.9313 L5.0859,50.925 L5.1776,55.9188 L4.6829,60.9125 L5,65.9063 " fill="none" style="stroke:#000000;stroke-width:1.0;"/><path d="M5,20.9688 L5.0934,20.9688 L4.8159,24.9625 L5.0859,28.9563 L5.1776,32.95 L4.6829,36.9438 L5,40.9375 " fill="none" style="stroke:#000000;stroke-width:1.0;"/><!--SRC=[HOxFIa915CRtynHdgOHMOd-G234hC2N9T1C9uxsJ3LxFoDovIcHGtaMBsjGoQDKBA2KOKht2cJTg3AJ5WVCxv_i-ldnek3OX3moxNc5XHsAFQzw5Iux-G4jZ18BHaM0COCTJWTAvGX29NNgs3pIXgRsbcHtH56nixsXkOtgtCGDwMnADOGXDUg8PpMbCd_G53bu0w6EL9aqsX3EtlzBOthiPsKUWR_fPQ1t4SCxO3SiBzFygich0qTGhPUWB7Kg5i9xEh6MowQsMC7mZKSSEgW62fxez6GWmiYkIB75OBKEe8kq9y6Lej6n5nfcJhCJx74uYNEXoSDmJM2eUBG-mZtsf5NO56bPgLFu5czbKGHge2UrgGAF2YkA2Hu5n3a_v4jivg9yUfBPPcMCxucsNBP3jAPUhhzolzWi0]--></g></svg>