<svg xmlns="http://www.w3.org/2000/svg" xmlns:xlink="http://www.w3.org/1999/xlink" contentStyleType="text/css" height="208px" preserveAspectRatio="none" style="width:333px;height:208px;background:#FFFFFF;" version="1.1" viewBox="0 0 333 208" width="333px" zoomAndPan="magnify"><defs/><g><text fill="#000000" font-family="sans-serif" font-size="12" lengthAdjust="spacing" textLength="46.3828" x="6" y="17.1387">&#1059;&#1089;&#1083;&#1091;&#1075;&#1072;:</text><text fill="#0000FF" font-family="sans-serif" font-size="12" lengthAdjust="spacing" textLength="116.3496" x="52.3828" y="17.1387">&#1058;&#1057;&#1046; &#1057;&#1085;&#1072;&#1081;&#1087;&#1077;&#1088;&#1086;&#1074;, 3</text><path d="M6,24.4688 L6,24.749 L15.8473,23.9163 L25.6946,24.7265 L35.5418,25.0017 L45.3891,23.5176 L55.2364,24.3651 L65.0837,23.9001 L74.931,23.9574 L84.7782,24.3779 L94.6255,23.5469 L104.4728,25.2069 L114.3201,23.6284 L124.1674,24.2051 L134.0146,25.0447 L143.8619,24.3544 L153.7092,24.5597 L163.5565,24.4262 L173.4038,24.7068 L183.2511,24.7876 L193.0983,25.2497 L202.9456,25.3635 L212.7929,25.3744 L222.6402,24.8083 L232.4875,25.0869 L242.3347,25.4051 L252.182,23.5072 L262.0293,24.4688 " fill="none" style="stroke:#AAAAAA;stroke-width:1.0;"/><path d="M6,26.4688 L6,26.749 L15.8473,25.9163 L25.6946,26.7265 L35.5418,27.0017 L45.3891,25.5176 L55.2364,26.3651 L65.0837,25.9001 L74.931,25.9574 L84.7782,26.3779 L94.6255,25.5469 L104.4728,27.2069 L114.3201,25.6284 L124.1674,26.2051 L134.0146,27.0447 L143.8619,26.3544 L153.7092,26.5597 L163.5565,26.4262 L173.4038,26.7068 L183.2511,26.7876 L193.0983,27.2497 L202.9456,27.3635 L212.7929,27.3744 L222.6402,26.8083 L232.4875,27.0869 L242.3347,27.4051 L252.182,25.5072 L262.0293,26.4688 " fill="none" style="stroke:#AAAAAA;stroke-width:1.0;"/><path d="M263.0293,24.4688 L263.0293,24.749 L273.5293,23.9163 L284.0293,24.7265 L294.5293,25.0017 L305.0293,23.5176 L315.5293,24.3651 L326.0293,24.4688 " fill="none" style="stroke:#AAAAAA;stroke-width:1.0;"/><path d="M263.0293,26.4688 L263.0293,26.749 L273.5293,25.9163 L284.0293,26.7265 L294.5293,27.0017 L305.0293,25.5176 L315.5293,26.3651 L326.0293,26.4688 " fill="none" style="stroke:#AAAAAA;stroke-width:1.0;"/><text fill="#000000" font-family="sans-serif" font-size="12" lengthAdjust="spacing" textLength="255.0293" x="6" y="41.1074">&#1048;&#1076;&#1077;&#1085;&#1090;&#1080;&#1092;&#1080;&#1082;&#1072;&#1090;&#1086;&#1088; &#1087;&#1083;&#1072;&#1090;&#1077;&#1078;&#1085;&#1086;&#1075;&#1086; &#1076;&#1086;&#1082;&#1091;&#1084;&#1077;&#1085;&#1090;&#1072;</text><text fill="#000000" font-family="sans-serif" font-size="12" lengthAdjust="spacing" textLength="15.2695" x="266.0293" y="41.1074">10</text><path d="M264.0293,43.9375 L264.0293,44.0309 L267.8293,43.7534 L271.6293,44.0234 L275.4293,44.1151 L279.2293,43.6204 L283.0293,43.9375 " fill="none" style="stroke:#000000;stroke-width:1.0;"/><path d="M264.0293,40.9375 L264.1227,40.9375 L263.8452,41.3375 L264.1152,41.7375 L264.2069,42.1375 L263.7122,42.5375 L264.0293,42.9375 " fill="none" style="stroke:#000000;stroke-width:1.0;"/><path d="M283.0293,40.9375 L283.1227,40.9375 L282.8452,41.3375 L283.1152,41.7375 L283.2069,42.1375 L282.7122,42.5375 L283.0293,42.9375 " fill="none" style="stroke:#000000;stroke-width:1.0;"/><text fill="#000000" font-family="sans-serif" font-size="12" lengthAdjust="spacing" textLength="136.0957" x="6" y="59.0762">&#1050;&#1086;&#1085;&#1090;&#1072;&#1082;&#1090;&#1085;&#1099;&#1081; &#1090;&#1077;&#1083;&#1077;&#1092;&#1086;&#1085;</text><text fill="#000000" font-family="sans-serif" font-size="12" lengthAdjust="spacing" textLength="15.2695" x="266.0293" y="59.0762">10</text><path d="M264.0293,61.9063 L264.0293,61.9997 L267.8293,61.7221 L271.6293,61.9922 L275.4293,62.0839 L279.2293,61.5892 L283.0293,61.9063 " fill="none" style="stroke:#000000;stroke-width:1.0;"/><path d="M264.0293,58.9063 L264.1227,58.9063 L263.8452,59.3063 L264.1152,59.7063 L264.2069,60.1063 L263.7122,60.5063 L264.0293,60.9063 " fill="none" style="stroke:#000000;stroke-width:1.0;"/><path d="M283.0293,58.9063 L283.1227,58.9063 L282.8452,59.3063 L283.1152,59.7063 L283.2069,60.1063 L282.7122,60.5063 L283.0293,60.9063 " fill="none" style="stroke:#000000;stroke-width:1.0;"/><text fill="#000000" font-family="sans-serif" font-size="12" lengthAdjust="spacing" textLength="142.541" x="6" y="77.0449">&#1053;&#1086;&#1084;&#1077;&#1088; &#1083;&#1080;&#1094;&#1077;&#1074;&#1086;&#1075;&#1086; &#1089;&#1095;&#1077;&#1090;&#1072;</text><text fill="#000000" font-family="sans-serif" font-size="12" lengthAdjust="spacing" textLength="15.2695" x="266.0293" y="77.0449">10</text><path d="M264.0293,79.875 L264.0293,79.9684 L267.8293,79.6909 L271.6293,79.9609 L275.4293,80.0526 L279.2293,79.5579 L283.0293,79.875 " fill="none" style="stroke:#000000;stroke-width:1.0;"/><path d="M264.0293,76.875 L264.1227,76.875 L263.8452,77.275 L264.1152,77.675 L264.2069,78.075 L263.7122,78.475 L264.0293,78.875 " fill="none" style="stroke:#000000;stroke-width:1.0;"/><path d="M283.0293,76.875 L283.1227,76.875 L282.8452,77.275 L283.1152,77.675 L283.2069,78.075 L282.7122,78.475 L283.0293,78.875 " fill="none" style="stroke:#000000;stroke-width:1.0;"/><text fill="#000000" font-family="sans-serif" font-size="12" lengthAdjust="spacing" textLength="106.6816" x="6" y="95.0137">&#1055;&#1077;&#1088;&#1080;&#1086;&#1076; &#1087;&#1083;&#1072;&#1090;&#1077;&#1078;&#1072;</text><text fill="#000000" font-family="sans-serif" font-size="12" lengthAdjust="spacing" textLength="15.2695" x="266.0293" y="95.0137">10</text><path d="M264.0293,97.8438 L264.0293,97.9372 L267.8293,97.6596 L271.6293,97.9297 L275.4293,98.0214 L279.2293,97.5267 L283.0293,97.8438 " fill="none" style="stroke:#000000;stroke-width:1.0;"/><path d="M264.0293,94.8438 L264.1227,94.8438 L263.8452,95.2438 L264.1152,95.6438 L264.2069,96.0438 L263.7122,96.4438 L264.0293,96.8438 " fill="none" style="stroke:#000000;stroke-width:1.0;"/><path d="M283.0293,94.8438 L283.1227,94.8438 L282.8452,95.2438 L283.1152,95.6438 L283.2069,96.0438 L282.7122,96.4438 L283.0293,96.8438 " fill="none" style="stroke:#000000;stroke-width:1.0;"/><text fill="#000000" font-family="sans-serif" font-size="12" lengthAdjust="spacing" textLength="38.1035" x="6" y="112.9824">&#1040;&#1076;&#1088;&#1077;&#1089;</text><text fill="#000000" font-family="sans-serif" font-size="12" lengthAdjust="spacing" textLength="38.1035" x="266.0293" y="112.9824">&#1040;&#1076;&#1088;&#1077;&#1089;</text><path d="M264.0293,115.8125 L264.0293,115.9059 L272.6293,115.6284 L281.2293,115.8984 L289.8293,115.9901 L298.4293,115.4954 L307.0293,115.8125 " fill="none" style="stroke:#000000;stroke-width:1.0;"/><path d="M264.0293,112.8125 L264.1227,112.8125 L263.8452,113.2125 L264.1152,113.6125 L264.2069,114.0125 L263.7122,114.4125 L264.0293,114.8125 " fill="none" style="stroke:#000000;stroke-width:1.0;"/><path d="M307.0293,112.8125 L307.1227,112.8125 L306.8452,113.2125 L307.1152,113.6125 L307.2069,114.0125 L306.7122,114.4125 L307.0293,114.8125 " fill="none" style="stroke:#000000;stroke-width:1.0;"/><text fill="#000000" font-family="sans-serif" font-size="12" lengthAdjust="spacing" textLength="40.9395" x="6" y="130.9512">&#1057;&#1091;&#1084;&#1084;&#1072;</text><text fill="#000000" font-family="sans-serif" font-size="12" lengthAdjust="spacing" textLength="49.623" x="266.0293" y="130.9512">1000.00</text><path d="M264.0293,133.7813 L264.0293,134.0615 L273.8626,133.2288 L283.696,134.039 L293.5293,134.3142 L303.3626,132.8301 L313.196,133.6776 L323.0293,133.7813 " fill="none" style="stroke:#000000;stroke-width:1.0;"/><path d="M264.0293,130.7813 L264.1227,130.7813 L263.8452,131.1813 L264.1152,131.5813 L264.2069,131.9813 L263.7122,132.3813 L264.0293,132.7813 " fill="none" style="stroke:#000000;stroke-width:1.0;"/><path d="M323.0293,130.7813 L323.1227,130.7813 L322.8452,131.1813 L323.1152,131.5813 L323.2069,131.9813 L322.7122,132.3813 L323.0293,132.7813 " fill="none" style="stroke:#000000;stroke-width:1.0;"/><path d="M6,141.2813 L6,141.5615 L15.8473,140.7288 L25.6946,141.539 L35.5418,141.8142 L45.3891,140.3301 L55.2364,141.1776 L65.0837,140.7126 L74.931,140.7699 L84.7782,141.1904 L94.6255,140.3594 L104.4728,142.0194 L114.3201,140.4409 L124.1674,141.0176 L134.0146,141.8572 L143.8619,141.1669 L153.7092,141.3722 L163.5565,141.2387 L173.4038,141.5193 L183.2511,141.6001 L193.0983,142.0622 L202.9456,142.176 L212.7929,142.1869 L222.6402,141.6208 L232.4875,141.8994 L242.3347,142.2176 L252.182,140.3197 L262.0293,141.2813 " fill="none" style="stroke:#AAAAAA;stroke-width:1.0;"/><path d="M263.0293,141.2813 L263.0293,141.5615 L273.5293,140.7288 L284.0293,141.539 L294.5293,141.8142 L305.0293,140.3301 L315.5293,141.1776 L326.0293,141.2813 " fill="none" style="stroke:#AAAAAA;stroke-width:1.0;"/><text fill="#000000" font-family="sans-serif" font-size="12" lengthAdjust="spacing" textLength="183.8145" x="6" y="156.9199">&#1057;&#1091;&#1084;&#1084;&#1072; &#1082; &#1086;&#1087;&#1083;&#1072;&#1090;&#1077;: 1027.50&#1088;&#1091;&#1073;.</text><text fill="#000000" font-family="sans-serif" font-size="12" lengthAdjust="spacing" textLength="129.0703" x="6" y="172.8887">&#1050;&#1086;&#1084;&#1080;&#1089;&#1089;&#1080;&#1103;: 27.50&#1088;&#1091;&#1073;.</text><polygon fill="#EEEEEE" points="13.5,180.2188,13.5,180.4289,23.3571,179.8044,33.2143,180.412,43.0714,180.6184,52.9286,179.5054,62.7857,180.141,72.6429,179.7923,82.5,179.8353,92.3571,180.1506,102.2143,179.5274,112.0714,180.7724,121.9286,179.5885,131.7857,180.021,141.6429,180.6507,151.5,180.2188,151.4891,180.1923,152.2158,180.5327,152.9101,180.7947,153.6441,181.1524,154.3589,181.464,155.0355,181.6832,155.2159,181.7579,155.5351,182.4759,155.8305,183.1841,155.9926,183.837,156.3499,184.5708,156.5,185.2188,156.7341,185.2188,156.2596,186.8125,156.7262,188.4063,156.4012,190,156.6779,191.5938,156.5,193.1875,156.3476,193.1244,156.186,193.8859,156.1426,194.6963,155.6063,195.3026,155.3609,196.0294,155.0355,196.723,155.0787,196.8273,154.3815,197.1441,153.6208,197.3076,152.9509,197.6902,152.1341,197.7183,151.5,198.1875,151.5,198.4719,141.6429,198.7357,131.7857,198.632,121.9286,198.8005,112.0714,197.7044,102.2143,197.5353,92.3571,197.5661,82.5,198.1286,72.6429,197.991,62.7857,198.8689,52.9286,198.0128,43.0714,197.8444,33.2143,198.4158,23.3571,197.5207,13.5,198.1875,13.4338,198.0276,12.8757,198.0945,12.1414,197.7359,11.4724,197.535,10.6305,196.9168,9.9645,196.723,10.0628,196.7638,9.8534,196.0912,9.2332,195.2486,9.0563,194.5895,8.8317,193.9107,8.5,193.1875,8.7173,193.1875,8.4986,191.5938,8.6542,190,8.3154,188.4063,8.2742,186.8125,8.5,185.2188,8.6551,185.283,8.5721,184.4202,9.2425,183.8695,9.4423,183.1238,9.5891,182.3561,9.9645,181.6832,9.9193,181.5743,10.7301,181.5316,11.3405,181.0052,12.1613,180.9868,12.7224,180.3414,13.5,180.2188" style="stroke:#000000;stroke-width:2.5;"/><text fill="#000000" font-family="sans-serif" font-size="12" lengthAdjust="spacing" textLength="93" x="36" y="193.3574">&#1053;&#1072;&#1095;&#1072;&#1090;&#1100; &#1086;&#1087;&#1083;&#1072;&#1090;&#1091;</text><path d="M5,5 L5,5.2802 L14.8857,4.4476 L24.7715,5.2577 L34.6572,5.5329 L44.543,4.0488 L54.4287,4.8964 L64.3145,4.4313 L74.2002,4.4887 L84.0859,4.9091 L93.9717,4.0782 L103.8574,5.7382 L113.7432,4.1596 L123.6289,4.7363 L133.5146,5.5759 L143.4004,4.8856 L153.2861,5.091 L163.1719,4.9574 L173.0576,5.238 L182.9434,5.3188 L192.8291,5.7809 L202.7148,5.8947 L212.6006,5.9057 L222.4863,5.3395 L232.3721,5.6181 L242.2578,5.9363 L252.1436,4.0384 L262.0293,5 " fill="none" style="stroke:#000000;stroke-width:1.0;"/><path d="M262.0293,5 L262.0293,5.2802 L272.696,4.4476 L283.3626,5.2577 L294.0293,5.5329 L304.696,4.0488 L315.3626,4.8964 L326.0293,5 " fill="none" style="stroke:#000000;stroke-width:1.0;"/><path d="M5,201.6875 L5,201.9677 L14.8857,201.1351 L24.7715,201.9452 L34.6572,202.2204 L44.543,200.7363 L54.4287,201.5839 L64.3145,201.1188 L74.2002,201.1762 L84.0859,201.5966 L93.9717,200.7657 L103.8574,202.4257 L113.7432,200.8471 L123.6289,201.4238 L133.5146,202.2634 L143.4004,201.5731 L153.2861,201.7785 L163.1719,201.6449 L173.0576,201.9255 L182.9434,202.0063 L192.8291,202.4684 L202.7148,202.5822 L212.6006,202.5932 L222.4863,202.027 L232.3721,202.3056 L242.2578,202.6238 L252.1436,200.7259 L262.0293,201.6875 " fill="none" style="stroke:#000000;stroke-width:1.0;"/><path d="M262.0293,201.6875 L262.0293,201.9677 L272.696,201.1351 L283.3626,201.9452 L294.0293,202.2204 L304.696,200.7363 L315.3626,201.5839 L326.0293,201.6875 " fill="none" style="stroke:#000000;stroke-width:1.0;"/><path d="M5,5 L5.0934,5 L4.8159,8.1938 L5.0859,11.3875 L5.1776,14.5813 L4.6829,17.775 L5,20.9688 " fill="none" style="stroke:#000000;stroke-width:1.0;"/><path d="M326.0293,28.9688 L326.1227,28.9688 L325.8452,32.5625 L326.1152,36.1563 L326.2069,39.75 L325.7122,43.3438 L326.0293,46.9375 " fill="none" style="stroke:#000000;stroke-width:1.0;"/><path d="M326.0293,5 L326.1227,5 L325.8452,8.1938 L326.1152,11.3875 L326.2069,14.5813 L325.7122,17.775 L326.0293,20.9688 " fill="none" style="stroke:#000000;stroke-width:1.0;"/><path d="M5,176.7188 L5.0934,176.7188 L4.8159,181.7125 L5.0859,186.7063 L5.1776,191.7 L4.6829,196.6938 L5,201.6875 " fill="none" style="stroke:#000000;stroke-width:1.0;"/><path d="M5,144.7813 L5.0934,144.7813 L4.8159,147.975 L5.0859,151.1688 L5.1776,154.3625 L4.6829,157.5563 L5,160.75 " fill="none" style="stroke:#000000;stroke-width:1.0;"/><path d="M326.0293,176.7188 L326.1227,176.7188 L325.8452,181.7125 L326.1152,186.7063 L326.2069,191.7 L325.7122,196.6938 L326.0293,201.6875 " fill="none" style="stroke:#000000;stroke-width:1.0;"/><path d="M5,118.8125 L5.0934,118.8125 L4.8159,122.4063 L5.0859,126 L5.1776,129.5938 L4.6829,133.1875 L5,136.7813 " fill="none" style="stroke:#000000;stroke-width:1.0;"/><path d="M326.0293,144.7813 L326.1227,144.7813 L325.8452,147.975 L326.1152,151.1688 L326.2069,154.3625 L325.7122,157.5563 L326.0293,160.75 " fill="none" style="stroke:#000000;stroke-width:1.0;"/><path d="M5,82.875 L5.0934,82.875 L4.8159,86.4688 L5.0859,90.0625 L5.1776,93.6563 L4.6829,97.25 L5,100.8438 " fill="none" style="stroke:#000000;stroke-width:1.0;"/><path d="M326.0293,118.8125 L326.1227,118.8125 L325.8452,122.4063 L326.1152,126 L326.2069,129.5938 L325.7122,133.1875 L326.0293,136.7813 " fill="none" style="stroke:#000000;stroke-width:1.0;"/><path d="M5,46.9375 L5.0934,46.9375 L4.8159,50.5313 L5.0859,54.125 L5.1776,57.7188 L4.6829,61.3125 L5,64.9063 " fill="none" style="stroke:#000000;stroke-width:1.0;"/><path d="M326.0293,82.875 L326.1227,82.875 L325.8452,86.4688 L326.1152,90.0625 L326.2069,93.6563 L325.7122,97.25 L326.0293,100.8438 " fill="none" style="stroke:#000000;stroke-width:1.0;"/><path d="M5,20.9688 L5.0934,20.9688 L4.8159,22.5688 L5.0859,24.1688 L5.1776,25.7688 L4.6829,27.3688 L5,28.9688 " fill="none" style="stroke:#000000;stroke-width:1.0;"/><path d="M326.0293,46.9375 L326.1227,46.9375 L325.8452,50.5313 L326.1152,54.125 L326.2069,57.7188 L325.7122,61.3125 L326.0293,64.9063 " fill="none" style="stroke:#000000;stroke-width:1.0;"/><path d="M326.0293,20.9688 L326.1227,20.9688 L325.8452,22.5688 L326.1152,24.1688 L326.2069,25.7688 L325.7122,27.3688 L326.0293,28.9688 " fill="none" style="stroke:#000000;stroke-width:1.0;"/><path d="M5,160.75 L5.0934,160.75 L4.8159,163.9438 L5.0859,167.1375 L5.1776,170.3313 L4.6829,173.525 L5,176.7188 " fill="none" style="stroke:#000000;stroke-width:1.0;"/><path d="M5,136.7813 L5.0934,136.7813 L4.8159,138.3813 L5.0859,139.9813 L5.1776,141.5813 L4.6829,143.1813 L5,144.7813 " fill="none" style="stroke:#000000;stroke-width:1.0;"/><path d="M326.0293,160.75 L326.1227,160.75 L325.8452,163.9438 L326.1152,167.1375 L326.2069,170.3313 L325.7122,173.525 L326.0293,176.7188 " fill="none" style="stroke:#000000;stroke-width:1.0;"/><path d="M5,100.8438 L5.0934,100.8438 L4.8159,104.4375 L5.0859,108.0313 L5.1776,111.625 L4.6829,115.2188 L5,118.8125 " fill="none" style="stroke:#000000;stroke-width:1.0;"/><path d="M326.0293,136.7813 L326.1227,136.7813 L325.8452,138.3813 L326.1152,139.9813 L326.2069,141.5813 L325.7122,143.1813 L326.0293,144.7813 " fill="none" style="stroke:#000000;stroke-width:1.0;"/><path d="M5,64.9063 L5.0934,64.9063 L4.8159,68.5 L5.0859,72.0938 L5.1776,75.6875 L4.6829,79.2813 L5,82.875 " fill="none" style="stroke:#000000;stroke-width:1.0;"/><path d="M326.0293,100.8438 L326.1227,100.8438 L325.8452,104.4375 L326.1152,108.0313 L326.2069,111.625 L325.7122,115.2188 L326.0293,118.8125 " fill="none" style="stroke:#000000;stroke-width:1.0;"/><path d="M5,28.9688 L5.0934,28.9688 L4.8159,32.5625 L5.0859,36.1563 L5.1776,39.75 L4.6829,43.3438 L5,46.9375 " fill="none" style="stroke:#000000;stroke-width:1.0;"/><path d="M326.0293,64.9063 L326.1227,64.9063 L325.8452,68.5 L326.1152,72.0938 L326.2069,75.6875 L325.7122,79.2813 L326.0293,82.875 " fill="none" style="stroke:#000000;stroke-width:1.0;"/><!--SRC=[LP71RjD048Rl-nIZd5g1BISDeLW4LMq1AIIY8hGNn659bc3XhAlrEXN2I4bRmG4aE264X53X1Kn9a9kavXLctuYnQPlsifhTxvz__jrT2pLNEkI-Pg-liV2b9tUvudrumMLtJtbQ2mbQHO8nO80_pGXdvW1_O-BUxWH-eDnrFn9ty0SUuMUWvHGJFC6_E353pF3uEgomUZskrwdv2uvnWgTc7rDpY2bECQ4wCqCW_QpOJF0FEMJadm6fCvpIiFbPLnANoaw9ZBuIA0u8xrFr7a-WQ9xHsCCSdYk_qMQUPm5YgNbBckCpUpCoxuXSilrUX4w9Zwyckb1ymZ4f9cOKbnPr3ewAcFF_IiUn7P9RLcnPR840fq3U5yOkb9tAJVk6OuOa-MMpubvpYZcYLqxDHnUku1YUG7wZX7AJWVbmoSqS0C1JzeQj2TajFfDj-LpgxLOJ1aA5NY2XR5USIjMkBRMvXaRaWrC3vvPRhhehgx3zU0DolCoMxcyr8GmYrH7GzKAjl6UHflvbrk033eyYgRs-SE7Xhf2DpGVd1t1N3ZmLoBwGcZLsMWj1hMgjUnhQGb4Is6cnJV6SHxwcZaxGzMJFfUdth5NMvB8NyHvv2yas0l9LhuYr_m40]--></g></svg>