<svg xmlns="http://www.w3.org/2000/svg" xmlns:xlink="http://www.w3.org/1999/xlink" contentStyleType="text/css" height="88px" preserveAspectRatio="none" style="width:340px;height:88px;background:#FFFFFF;" version="1.1" viewBox="0 0 340 88" width="340px" zoomAndPan="magnify"><defs/><g><text fill="#000000" font-family="sans-serif" font-size="12" lengthAdjust="spacing" textLength="46.3828" x="6" y="17.1387">&#1059;&#1089;&#1083;&#1091;&#1075;&#1072;:</text><text fill="#0000FF" font-family="sans-serif" font-size="12" lengthAdjust="spacing" textLength="94.6348" x="52.3828" y="17.1387">&#1041;&#1080;&#1083;&#1072;&#1081;&#1085; &#1041;&#1050;  &#1076;/&#1073;</text><text fill="#000000" font-family="sans-serif" font-size="12" lengthAdjust="spacing" textLength="166.3477" x="6" y="33.1074">&#1053;&#1086;&#1084;&#1077;&#1088; &#1090;&#1077;&#1083;&#1077;&#1092;&#1086;&#1085;&#1072; (&#1073;&#1077;&#1079; +7):</text><text fill="#000000" font-family="sans-serif" font-size="12" lengthAdjust="spacing" textLength="91.0371" x="177.3477" y="33.1074">Enter text here</text><path d="M175.3477,35.9375 L175.3477,36.2177 L185.1477,35.3851 L194.9477,36.1952 L204.7477,36.4704 L214.5477,34.9863 L224.3477,35.8339 L234.1477,35.3688 L243.9477,35.4262 L253.7477,35.8466 L263.5477,35.0157 L273.3477,36.6757 L283.1477,35.0971 L292.9477,35.6738 L302.7477,36.5134 L312.5477,35.8231 L322.3477,35.9375 " fill="none" style="stroke:#000000;stroke-width:1.0;"/><path d="M175.3477,32.9375 L175.4411,32.9375 L175.1635,33.3375 L175.4336,33.7375 L175.5253,34.1375 L175.0306,34.5375 L175.3477,34.9375 " fill="none" style="stroke:#000000;stroke-width:1.0;"/><path d="M322.3477,32.9375 L322.4411,32.9375 L322.1635,33.3375 L322.4336,33.7375 L322.5253,34.1375 L322.0306,34.5375 L322.3477,34.9375 " fill="none" style="stroke:#000000;stroke-width:1.0;"/><text fill="#000000" font-family="sans-serif" font-size="12" lengthAdjust="spacing" textLength="78.5449" x="6" y="51.0762">&#1057;&#1091;&#1084;&#1084;&#1072;, &#1088;&#1091;&#1073;.:</text><text fill="#000000" font-family="sans-serif" font-size="12" lengthAdjust="spacing" textLength="111.7324" x="177.3477" y="51.0762">Enter summa here</text><path d="M175.3477,53.9063 L175.3477,54.1865 L185.0352,53.3538 L194.7227,54.164 L204.4102,54.4392 L214.0977,52.9551 L223.7852,53.8026 L233.4727,53.3376 L243.1602,53.3949 L252.8477,53.8154 L262.5352,52.9844 L272.2227,54.6444 L281.9102,53.0659 L291.5977,53.6426 L301.2852,54.4822 L310.9727,53.7919 L320.6602,53.9972 L330.3477,53.9063 " fill="none" style="stroke:#000000;stroke-width:1.0;"/><path d="M175.3477,50.9063 L175.4411,50.9063 L175.1635,51.3063 L175.4336,51.7063 L175.5253,52.1063 L175.0306,52.5063 L175.3477,52.9063 " fill="none" style="stroke:#000000;stroke-width:1.0;"/><path d="M330.3477,50.9063 L330.4411,50.9063 L330.1635,51.3063 L330.4336,51.7063 L330.5253,52.1063 L330.0306,52.5063 L330.3477,52.9063 " fill="none" style="stroke:#000000;stroke-width:1.0;"/><polygon fill="#EEEEEE" points="13.5,60.4063,13.5,60.6164,23.3571,59.9919,33.2143,60.5995,43.0714,60.8059,52.9286,59.6929,62.7857,60.3285,72.6429,59.9798,82.5,60.0228,92.3571,60.3381,102.2143,59.7149,112.0714,60.9599,121.9286,59.776,131.7857,60.2085,141.6429,60.8382,151.5,60.4063,151.4891,60.3798,152.2158,60.7202,152.9101,60.9822,153.6441,61.3399,154.3589,61.6515,155.0355,61.8707,155.2159,61.9454,155.5351,62.6634,155.8305,63.3716,155.9926,64.0245,156.3499,64.7583,156.5,65.4063,156.7341,65.4063,156.2596,67,156.7262,68.5938,156.4012,70.1875,156.6779,71.7813,156.5,73.375,156.3476,73.3119,156.186,74.0734,156.1426,74.8838,155.6063,75.4901,155.3609,76.2169,155.0355,76.9105,155.0787,77.0148,154.3815,77.3316,153.6208,77.4951,152.9509,77.8777,152.1341,77.9058,151.5,78.375,151.5,78.6594,141.6429,78.9232,131.7857,78.8195,121.9286,78.988,112.0714,77.8919,102.2143,77.7228,92.3571,77.7536,82.5,78.3161,72.6429,78.1785,62.7857,79.0564,52.9286,78.2003,43.0714,78.0319,33.2143,78.6033,23.3571,77.7082,13.5,78.375,13.4338,78.2151,12.8757,78.282,12.1414,77.9234,11.4724,77.7225,10.6305,77.1043,9.9645,76.9105,10.0628,76.9513,9.8534,76.2787,9.2332,75.4361,9.0563,74.777,8.8317,74.0982,8.5,73.375,8.7173,73.375,8.4986,71.7813,8.6542,70.1875,8.3154,68.5938,8.2742,67,8.5,65.4063,8.6551,65.4705,8.5721,64.6077,9.2425,64.057,9.4423,63.3113,9.5891,62.5436,9.9645,61.8707,9.9193,61.7618,10.7301,61.7191,11.3405,61.1927,12.1613,61.1743,12.7224,60.5289,13.5,60.4063" style="stroke:#000000;stroke-width:2.5;"/><text fill="#000000" font-family="sans-serif" font-size="12" lengthAdjust="spacing" textLength="104.2852" x="30.3574" y="73.5449">&#1057;&#1083;&#1077;&#1076;&#1091;&#1102;&#1097;&#1080;&#1081; &#1096;&#1072;&#1075;</text><path d="M5,5 L5,5.2802 L14.9028,4.4476 L24.8056,5.2577 L34.7084,5.5329 L44.6112,4.0488 L54.514,4.8964 L64.4168,4.4313 L74.3196,4.4887 L84.2224,4.9091 L94.1252,4.0782 L104.028,5.7382 L113.9308,4.1596 L123.8336,4.7363 L133.7364,5.5759 L143.6392,4.8856 L153.542,5.091 L163.4449,4.9574 L173.3477,5 " fill="none" style="stroke:#000000;stroke-width:1.0;"/><path d="M173.3477,5 L173.3477,5.2802 L183.3477,4.4476 L193.3477,5.2577 L203.3477,5.5329 L213.3477,4.0488 L223.3477,4.8964 L233.3477,4.4313 L243.3477,4.4887 L253.3477,4.9091 L263.3477,4.0782 L273.3477,5.7382 L283.3477,4.1596 L293.3477,4.7363 L303.3477,5.5759 L313.3477,4.8856 L323.3477,5.091 L333.3477,5 " fill="none" style="stroke:#000000;stroke-width:1.0;"/><path d="M5,81.875 L5,82.1552 L14.9028,81.3226 L24.8056,82.1327 L34.7084,82.4079 L44.6112,80.9238 L54.514,81.7714 L64.4168,81.3063 L74.3196,81.3637 L84.2224,81.7841 L94.1252,80.9532 L104.028,82.6132 L113.9308,81.0346 L123.8336,81.6113 L133.7364,82.4509 L143.6392,81.7606 L153.542,81.966 L163.4449,81.8324 L173.3477,81.875 " fill="none" style="stroke:#000000;stroke-width:1.0;"/><path d="M173.3477,81.875 L173.3477,82.1552 L183.3477,81.3226 L193.3477,82.1327 L203.3477,82.4079 L213.3477,80.9238 L223.3477,81.7714 L233.3477,81.3063 L243.3477,81.3637 L253.3477,81.7841 L263.3477,80.9532 L273.3477,82.6132 L283.3477,81.0346 L293.3477,81.6113 L303.3477,82.4509 L313.3477,81.7606 L323.3477,81.966 L333.3477,81.875 " fill="none" style="stroke:#000000;stroke-width:1.0;"/><path d="M5,5 L5.0934,5 L4.8159,8.1938 L5.0859,11.3875 L5.1776,14.5813 L4.6829,17.775 L5,20.9688 " fill="none" style="stroke:#000000;stroke-width:1.0;"/><path d="M333.3477,38.9375 L333.4411,38.9375 L333.1635,42.5313 L333.4336,46.125 L333.5253,49.7188 L333.0306,53.3125 L333.3477,56.9063 " fill="none" style="stroke:#000000;stroke-width:1.0;"/><path d="M333.3477,20.9688 L333.4411,20.9688 L333.1635,24.5625 L333.4336,28.1563 L333.5253,31.75 L333.0306,35.3438 L333.3477,38.9375 " fill="none" style="stroke:#000000;stroke-width:1.0;"/><path d="M333.3477,5 L333.4411,5 L333.1635,8.1938 L333.4336,11.3875 L333.5253,14.5813 L333.0306,17.775 L333.3477,20.9688 " fill="none" style="stroke:#000000;stroke-width:1.0;"/><path d="M5,56.9063 L5.0934,56.9063 L4.8159,61.9 L5.0859,66.8938 L5.1776,71.8875 L4.6829,76.8813 L5,81.875 " fill="none" style="stroke:#000000;stroke-width:1.0;"/><path d="M5,38.9375 L5.0934,38.9375 L4.8159,42.5313 L5.0859,46.125 L5.1776,49.7188 L4.6829,53.3125 L5,56.9063 " fill="none" style="stroke:#000000;stroke-width:1.0;"/><path d="M5,20.9688 L5.0934,20.9688 L4.8159,24.5625 L5.0859,28.1563 L5.1776,31.75 L4.6829,35.3438 L5,38.9375 " fill="none" style="stroke:#000000;stroke-width:1.0;"/><path d="M333.3477,56.9063 L333.4411,56.9063 L333.1635,61.9 L333.4336,66.8938 L333.5253,71.8875 L333.0306,76.8813 L333.3477,81.875 " fill="none" style="stroke:#000000;stroke-width:1.0;"/><!--SRC=[HO_DIcD148Nt_HI5gmJ7E8epoaL477yW9YXgt8YBDgc9ZVTMXxvreyCeE3gBSIEu5Lo8Bv2WGSMVPwX-eoa7HkbDzwdlr3azcxCDdDkKpSzXa-yvwjXWCzYrrDeFZXa9E1He383Sn5_o54_bLdh9TDEdFYHpQO4pSY4FyYGzUPGNqCUbidUZqZSWL_8gppA8nn1FPA3G8FvMwKLwK9A-AlSmF5bE3eSMY340um73BWO4W26rNslQivxU9uZ7UkzNtj6yo3BxmHx2bgPUloN8NJoDv_5CIpr2_AEzRXNPDaTc5gdrxwzcDRN4ZNeDkXXovmd6AkEVnoSgapl8zakfGNlazmcQFkku585TXcLJMbgjGUwBq4HekPo3sobOpMLJjLqBQmMzSGciT92gyyl_1LYWhWkUCYGsrStw1_1rOcJECQnZq1gmMJVp-DqMAQkZwLkEsWaqDXP7fapDKhkmRTsDPBvvtHj-w6pzBm00]--></g></svg>