<svg xmlns="http://www.w3.org/2000/svg" xmlns:xlink="http://www.w3.org/1999/xlink" contentStyleType="text/css" height="120px" preserveAspectRatio="none" style="width:285px;height:120px;background:#FFFFFF;" version="1.1" viewBox="0 0 285 120" width="285px" zoomAndPan="magnify"><defs/><g><text fill="#000000" font-family="sans-serif" font-size="12" lengthAdjust="spacing" textLength="46.3828" x="6" y="17.1387">&#1059;&#1089;&#1083;&#1091;&#1075;&#1072;:</text><text fill="#0000FF" font-family="sans-serif" font-size="12" lengthAdjust="spacing" textLength="94.6348" x="52.3828" y="17.1387">&#1041;&#1080;&#1083;&#1072;&#1081;&#1085; &#1041;&#1050;  &#1076;/&#1073;</text><text fill="#000000" font-family="sans-serif" font-size="12" lengthAdjust="spacing" textLength="166.3477" x="6" y="33.1074">&#1053;&#1086;&#1084;&#1077;&#1088; &#1090;&#1077;&#1083;&#1077;&#1092;&#1086;&#1085;&#1072; (&#1073;&#1077;&#1079; +7):</text><text fill="#9A9A9A" font-family="sans-serif" font-size="12" lengthAdjust="spacing" textLength="76.3477" x="194.8145" y="33.1074">9206526152</text><path d="M192.8145,35.9375 L192.8145,36.2177 L203.1895,35.3851 L213.5645,36.1952 L223.9395,36.4704 L234.3145,34.9863 L244.6895,35.8339 L255.0645,35.3688 L265.4395,35.4262 L275.8145,35.9375 " fill="none" style="stroke:#000000;stroke-width:1.0;"/><path d="M192.8145,32.9375 L192.9079,32.9375 L192.6303,33.3375 L192.9004,33.7375 L192.9921,34.1375 L192.4974,34.5375 L192.8145,34.9375 " fill="none" style="stroke:#000000;stroke-width:1.0;"/><path d="M275.8145,32.9375 L275.9079,32.9375 L275.6303,33.3375 L275.9004,33.7375 L275.9921,34.1375 L275.4974,34.5375 L275.8145,34.9375 " fill="none" style="stroke:#000000;stroke-width:1.0;"/><text fill="#000000" font-family="sans-serif" font-size="12" lengthAdjust="spacing" textLength="78.5449" x="6" y="51.0762">&#1057;&#1091;&#1084;&#1084;&#1072;, &#1088;&#1091;&#1073;.:</text><text fill="#9A9A9A" font-family="sans-serif" font-size="12" lengthAdjust="spacing" textLength="30.5391" x="194.8145" y="51.0762">1000</text><path d="M192.8145,53.9063 L192.8145,54.1865 L203.0145,53.3538 L213.2145,54.164 L223.4145,54.4392 L233.6145,52.9551 L243.8145,53.9063 " fill="none" style="stroke:#000000;stroke-width:1.0;"/><path d="M192.8145,50.9063 L192.9079,50.9063 L192.6303,51.3063 L192.9004,51.7063 L192.9921,52.1063 L192.4974,52.5063 L192.8145,52.9063 " fill="none" style="stroke:#000000;stroke-width:1.0;"/><path d="M243.8145,50.9063 L243.9079,50.9063 L243.6303,51.3063 L243.9004,51.7063 L243.9921,52.1063 L243.4974,52.5063 L243.8145,52.9063 " fill="none" style="stroke:#000000;stroke-width:1.0;"/><text fill="#000000" font-family="sans-serif" font-size="12" lengthAdjust="spacing" textLength="183.8145" x="6" y="69.0449">&#1057;&#1091;&#1084;&#1084;&#1072; &#1082; &#1086;&#1087;&#1083;&#1072;&#1090;&#1077;: 1000.00&#1088;&#1091;&#1073;.</text><text fill="#000000" font-family="sans-serif" font-size="12" lengthAdjust="spacing" textLength="121.4355" x="6" y="85.0137">&#1050;&#1086;&#1084;&#1080;&#1089;&#1089;&#1080;&#1103;: 0.00&#1088;&#1091;&#1073;.</text><polygon fill="#EEEEEE" points="13.5,92.3438,13.5,92.5539,23.3571,91.9294,33.2143,92.537,43.0714,92.7434,52.9286,91.6304,62.7857,92.266,72.6429,91.9173,82.5,91.9603,92.3571,92.2756,102.2143,91.6524,112.0714,92.8974,121.9286,91.7135,131.7857,92.146,141.6429,92.7757,151.5,92.3438,151.4891,92.3173,152.2158,92.6577,152.9101,92.9197,153.6441,93.2774,154.3589,93.589,155.0355,93.8082,155.2159,93.8829,155.5351,94.6009,155.8305,95.3091,155.9926,95.962,156.3499,96.6958,156.5,97.3438,156.7341,97.3438,156.2596,98.9375,156.7262,100.5313,156.4012,102.125,156.6779,103.7188,156.5,105.3125,156.3476,105.2494,156.186,106.0109,156.1426,106.8213,155.6063,107.4276,155.3609,108.1544,155.0355,108.848,155.0787,108.9523,154.3815,109.2691,153.6208,109.4326,152.9509,109.8152,152.1341,109.8433,151.5,110.3125,151.5,110.5969,141.6429,110.8607,131.7857,110.757,121.9286,110.9255,112.0714,109.8294,102.2143,109.6603,92.3571,109.6911,82.5,110.2536,72.6429,110.116,62.7857,110.9939,52.9286,110.1378,43.0714,109.9694,33.2143,110.5408,23.3571,109.6457,13.5,110.3125,13.4338,110.1526,12.8757,110.2195,12.1414,109.8609,11.4724,109.66,10.6305,109.0418,9.9645,108.848,10.0628,108.8888,9.8534,108.2162,9.2332,107.3736,9.0563,106.7145,8.8317,106.0357,8.5,105.3125,8.7173,105.3125,8.4986,103.7188,8.6542,102.125,8.3154,100.5313,8.2742,98.9375,8.5,97.3438,8.6551,97.408,8.5721,96.5452,9.2425,95.9945,9.4423,95.2488,9.5891,94.4811,9.9645,93.8082,9.9193,93.6993,10.7301,93.6566,11.3405,93.1302,12.1613,93.1118,12.7224,92.4664,13.5,92.3438" style="stroke:#000000;stroke-width:2.5;"/><text fill="#000000" font-family="sans-serif" font-size="12" lengthAdjust="spacing" textLength="93" x="36" y="105.4824">&#1053;&#1072;&#1095;&#1072;&#1090;&#1100; &#1086;&#1087;&#1083;&#1072;&#1090;&#1091;</text><path d="M5,5 L5,5.2802 L14.7797,4.4476 L24.5594,5.2577 L34.3391,5.5329 L44.1188,4.0488 L53.8985,4.8964 L63.6782,4.4313 L73.458,4.4887 L83.2377,4.9091 L93.0174,4.0782 L102.7971,5.7382 L112.5768,4.1596 L122.3565,4.7363 L132.1362,5.5759 L141.9159,4.8856 L151.6956,5.091 L161.4753,4.9574 L171.255,5.238 L181.0347,5.3188 L190.8145,5 " fill="none" style="stroke:#000000;stroke-width:1.0;"/><path d="M190.8145,5 L190.8145,5.2802 L200.5922,4.4476 L210.37,5.2577 L220.1478,5.5329 L229.9256,4.0488 L239.7033,4.8964 L249.4811,4.4313 L259.2589,4.4887 L269.0367,4.9091 L278.8145,5 " fill="none" style="stroke:#000000;stroke-width:1.0;"/><path d="M5,113.8125 L5,114.0927 L14.7797,113.2601 L24.5594,114.0702 L34.3391,114.3454 L44.1188,112.8613 L53.8985,113.7089 L63.6782,113.2438 L73.458,113.3012 L83.2377,113.7216 L93.0174,112.8907 L102.7971,114.5507 L112.5768,112.9721 L122.3565,113.5488 L132.1362,114.3884 L141.9159,113.6981 L151.6956,113.9035 L161.4753,113.7699 L171.255,114.0505 L181.0347,114.1313 L190.8145,113.8125 " fill="none" style="stroke:#000000;stroke-width:1.0;"/><path d="M190.8145,113.8125 L190.8145,114.0927 L200.5922,113.2601 L210.37,114.0702 L220.1478,114.3454 L229.9256,112.8613 L239.7033,113.7089 L249.4811,113.2438 L259.2589,113.3012 L269.0367,113.7216 L278.8145,113.8125 " fill="none" style="stroke:#000000;stroke-width:1.0;"/><path d="M5,5 L5.0934,5 L4.8159,8.1938 L5.0859,11.3875 L5.1776,14.5813 L4.6829,17.775 L5,20.9688 " fill="none" style="stroke:#000000;stroke-width:1.0;"/><path d="M278.8145,38.9375 L278.9079,38.9375 L278.6303,42.5313 L278.9004,46.125 L278.9921,49.7188 L278.4974,53.3125 L278.8145,56.9063 " fill="none" style="stroke:#000000;stroke-width:1.0;"/><path d="M278.8145,20.9688 L278.9079,20.9688 L278.6303,24.5625 L278.9004,28.1563 L278.9921,31.75 L278.4974,35.3438 L278.8145,38.9375 " fill="none" style="stroke:#000000;stroke-width:1.0;"/><path d="M278.8145,5 L278.9079,5 L278.6303,8.1938 L278.9004,11.3875 L278.9921,14.5813 L278.4974,17.775 L278.8145,20.9688 " fill="none" style="stroke:#000000;stroke-width:1.0;"/><path d="M5,88.8438 L5.0934,88.8438 L4.8159,93.8375 L5.0859,98.8313 L5.1776,103.825 L4.6829,108.8188 L5,113.8125 " fill="none" style="stroke:#000000;stroke-width:1.0;"/><path d="M5,72.875 L5.0934,72.875 L4.8159,76.0688 L5.0859,79.2625 L5.1776,82.4563 L4.6829,85.65 L5,88.8438 " fill="none" style="stroke:#000000;stroke-width:1.0;"/><path d="M5,56.9063 L5.0934,56.9063 L4.8159,60.1 L5.0859,63.2938 L5.1776,66.4875 L4.6829,69.6813 L5,72.875 " fill="none" style="stroke:#000000;stroke-width:1.0;"/><path d="M278.8145,88.8438 L278.9079,88.8438 L278.6303,93.8375 L278.9004,98.8313 L278.9921,103.825 L278.4974,108.8188 L278.8145,113.8125 " fill="none" style="stroke:#000000;stroke-width:1.0;"/><path d="M5,38.9375 L5.0934,38.9375 L4.8159,42.5313 L5.0859,46.125 L5.1776,49.7188 L4.6829,53.3125 L5,56.9063 " fill="none" style="stroke:#000000;stroke-width:1.0;"/><path d="M278.8145,72.875 L278.9079,72.875 L278.6303,76.0688 L278.9004,79.2625 L278.9921,82.4563 L278.4974,85.65 L278.8145,88.8438 " fill="none" style="stroke:#000000;stroke-width:1.0;"/><path d="M5,20.9688 L5.0934,20.9688 L4.8159,24.5625 L5.0859,28.1563 L5.1776,31.75 L4.6829,35.3438 L5,38.9375 " fill="none" style="stroke:#000000;stroke-width:1.0;"/><path d="M278.8145,56.9063 L278.9079,56.9063 L278.6303,60.1 L278.9004,63.2938 L278.9921,66.4875 L278.4974,69.6813 L278.8145,72.875 " fill="none" style="stroke:#000000;stroke-width:1.0;"/><!--SRC=[PL3TQXD15BwVf_Y8DmcrSRAcQxD8AMrLY0aMOtiZNep960StisLsDY9MQAtWZI3U5hmGNs231gDjzHNEl95dIwK5EJTdllFzd3FhkLVEvohrulMIo5yOkwUSck2vigENpdYlBRmhj100VGs7T1AEw1kLoUrXbcOksKWBlKQVQ44dLD9FEWC_Zfdx_GRDM4IVwJUTqZmS8BobERFcuHr3PrIYJZD6Vc3fLYFPhrqONkkegjOwaOnNehYr4jNOvGkdddALrn4Ek9yr_rUqf9H0JLoIGR_0MN-gtQhq11MdAUM5Xw3Zy-qMuP0lMuIF2QvEz_4OrG5bU5_fmuShPk48m1FnHgnhEph_Fh6TAkjt-ZrCjSjDPj5gHZ9gD-FwG7bqYnGoXkmahNPoSnKxZpPHZHkYVc-xXpmht51ZP7BlpDF2ixuXkcggyB2mtanqWWTxsdQtxly3SCTEZSliH5ilkhlzIqBSNjum7WFjU1FiziMMVgQArBDYc8sC7IUSVdTvLVIK7HTgpDxQYisCVTqhdWt-0W00]--></g></svg>