<svg xmlns="http://www.w3.org/2000/svg" xmlns:xlink="http://www.w3.org/1999/xlink" contentStyleType="text/css" height="176px" preserveAspectRatio="none" style="width:383px;height:176px;background:#FFFFFF;" version="1.1" viewBox="0 0 383 176" width="383px" zoomAndPan="magnify"><defs/><g><text fill="#000000" font-family="sans-serif" font-size="12" lengthAdjust="spacing" textLength="46.3828" x="6" y="17.1387">&#1059;&#1089;&#1083;&#1091;&#1075;&#1072;:</text><text fill="#0000FF" font-family="sans-serif" font-size="12" lengthAdjust="spacing" textLength="116.3496" x="52.3828" y="17.1387">&#1058;&#1057;&#1046; &#1057;&#1085;&#1072;&#1081;&#1087;&#1077;&#1088;&#1086;&#1074;, 3</text><path d="M6,24.4688 L6,24.749 L15.9231,23.9163 L25.8462,24.7265 L35.7692,25.0017 L45.6923,23.5176 L55.6154,24.3651 L65.5385,23.9001 L75.4615,23.9574 L85.3846,24.3779 L95.3077,23.5469 L105.2308,25.2069 L115.1538,23.6284 L125.0769,24.2051 L135,25.0447 L144.9231,24.3544 L154.8462,24.5597 L164.7692,24.4262 L174.6923,24.7068 L184.6154,24.7876 L194.5385,25.2497 L204.4615,25.3635 L214.3846,25.3744 L224.3077,24.8083 L234.2308,25.0869 L244.1538,25.4051 L254.0769,23.5072 L264,24.4688 " fill="none" style="stroke:#AAAAAA;stroke-width:1.0;"/><path d="M6,26.4688 L6,26.749 L15.9231,25.9163 L25.8462,26.7265 L35.7692,27.0017 L45.6923,25.5176 L55.6154,26.3651 L65.5385,25.9001 L75.4615,25.9574 L85.3846,26.3779 L95.3077,25.5469 L105.2308,27.2069 L115.1538,25.6284 L125.0769,26.2051 L135,27.0447 L144.9231,26.3544 L154.8462,26.5597 L164.7692,26.4262 L174.6923,26.7068 L184.6154,26.7876 L194.5385,27.2497 L204.4615,27.3635 L214.3846,27.3744 L224.3077,26.8083 L234.2308,27.0869 L244.1538,27.4051 L254.0769,25.5072 L264,26.4688 " fill="none" style="stroke:#AAAAAA;stroke-width:1.0;"/><path d="M265,24.4688 L265,24.749 L275.0909,23.9163 L285.1818,24.7265 L295.2727,25.0017 L305.3636,23.5176 L315.4545,24.3651 L325.5455,23.9001 L335.6364,23.9574 L345.7273,24.3779 L355.8182,23.5469 L365.9091,25.2069 L376,24.4688 " fill="none" style="stroke:#AAAAAA;stroke-width:1.0;"/><path d="M265,26.4688 L265,26.749 L275.0909,25.9163 L285.1818,26.7265 L295.2727,27.0017 L305.3636,25.5176 L315.4545,26.3651 L325.5455,25.9001 L335.6364,25.9574 L345.7273,26.3779 L355.8182,25.5469 L365.9091,27.2069 L376,26.4688 " fill="none" style="stroke:#AAAAAA;stroke-width:1.0;"/><text fill="#000000" font-family="sans-serif" font-size="12" lengthAdjust="spacing" textLength="255.0293" x="6" y="41.1074">&#1048;&#1076;&#1077;&#1085;&#1090;&#1080;&#1092;&#1080;&#1082;&#1072;&#1090;&#1086;&#1088; &#1087;&#1083;&#1072;&#1090;&#1077;&#1078;&#1085;&#1086;&#1075;&#1086; &#1076;&#1086;&#1082;&#1091;&#1084;&#1077;&#1085;&#1090;&#1072;</text><text fill="#000000" font-family="sans-serif" font-size="12" lengthAdjust="spacing" textLength="70.8047" x="268" y="41.1074">insert value</text><path d="M266,43.9375 L266,44.2177 L275.7273,43.3851 L285.4545,44.1952 L295.1818,44.4704 L304.9091,42.9863 L314.6364,43.8339 L324.3636,43.3688 L334.0909,43.4262 L343.8182,43.8466 L353.5455,43.0157 L363.2727,44.6757 L373,43.9375 " fill="none" style="stroke:#000000;stroke-width:1.0;"/><path d="M266,40.9375 L266.0934,40.9375 L265.8159,41.3375 L266.0859,41.7375 L266.1776,42.1375 L265.6829,42.5375 L266,42.9375 " fill="none" style="stroke:#000000;stroke-width:1.0;"/><path d="M373,40.9375 L373.0934,40.9375 L372.8159,41.3375 L373.0859,41.7375 L373.1776,42.1375 L372.6829,42.5375 L373,42.9375 " fill="none" style="stroke:#000000;stroke-width:1.0;"/><text fill="#000000" font-family="sans-serif" font-size="12" lengthAdjust="spacing" textLength="136.0957" x="6" y="59.0762">&#1050;&#1086;&#1085;&#1090;&#1072;&#1082;&#1090;&#1085;&#1099;&#1081; &#1090;&#1077;&#1083;&#1077;&#1092;&#1086;&#1085;</text><text fill="#000000" font-family="sans-serif" font-size="12" lengthAdjust="spacing" textLength="70.8047" x="268" y="59.0762">insert value</text><path d="M266,61.9063 L266,62.1865 L275.7273,61.3538 L285.4545,62.164 L295.1818,62.4392 L304.9091,60.9551 L314.6364,61.8026 L324.3636,61.3376 L334.0909,61.3949 L343.8182,61.8154 L353.5455,60.9844 L363.2727,62.6444 L373,61.9063 " fill="none" style="stroke:#000000;stroke-width:1.0;"/><path d="M266,58.9063 L266.0934,58.9063 L265.8159,59.3063 L266.0859,59.7063 L266.1776,60.1063 L265.6829,60.5063 L266,60.9063 " fill="none" style="stroke:#000000;stroke-width:1.0;"/><path d="M373,58.9063 L373.0934,58.9063 L372.8159,59.3063 L373.0859,59.7063 L373.1776,60.1063 L372.6829,60.5063 L373,60.9063 " fill="none" style="stroke:#000000;stroke-width:1.0;"/><text fill="#000000" font-family="sans-serif" font-size="12" lengthAdjust="spacing" textLength="142.541" x="6" y="77.0449">&#1053;&#1086;&#1084;&#1077;&#1088; &#1083;&#1080;&#1094;&#1077;&#1074;&#1086;&#1075;&#1086; &#1089;&#1095;&#1077;&#1090;&#1072;</text><text fill="#000000" font-family="sans-serif" font-size="12" lengthAdjust="spacing" textLength="70.8047" x="268" y="77.0449">insert value</text><path d="M266,79.875 L266,80.1552 L275.7273,79.3226 L285.4545,80.1327 L295.1818,80.4079 L304.9091,78.9238 L314.6364,79.7714 L324.3636,79.3063 L334.0909,79.3637 L343.8182,79.7841 L353.5455,78.9532 L363.2727,80.6132 L373,79.875 " fill="none" style="stroke:#000000;stroke-width:1.0;"/><path d="M266,76.875 L266.0934,76.875 L265.8159,77.275 L266.0859,77.675 L266.1776,78.075 L265.6829,78.475 L266,78.875 " fill="none" style="stroke:#000000;stroke-width:1.0;"/><path d="M373,76.875 L373.0934,76.875 L372.8159,77.275 L373.0859,77.675 L373.1776,78.075 L372.6829,78.475 L373,78.875 " fill="none" style="stroke:#000000;stroke-width:1.0;"/><text fill="#000000" font-family="sans-serif" font-size="12" lengthAdjust="spacing" textLength="106.6816" x="6" y="95.0137">&#1055;&#1077;&#1088;&#1080;&#1086;&#1076; &#1087;&#1083;&#1072;&#1090;&#1077;&#1078;&#1072;</text><text fill="#000000" font-family="sans-serif" font-size="12" lengthAdjust="spacing" textLength="70.8047" x="268" y="95.0137">insert value</text><path d="M266,97.8438 L266,98.124 L275.7273,97.2913 L285.4545,98.1015 L295.1818,98.3767 L304.9091,96.8926 L314.6364,97.7401 L324.3636,97.2751 L334.0909,97.3324 L343.8182,97.7529 L353.5455,96.9219 L363.2727,98.5819 L373,97.8438 " fill="none" style="stroke:#000000;stroke-width:1.0;"/><path d="M266,94.8438 L266.0934,94.8438 L265.8159,95.2438 L266.0859,95.6438 L266.1776,96.0438 L265.6829,96.4438 L266,96.8438 " fill="none" style="stroke:#000000;stroke-width:1.0;"/><path d="M373,94.8438 L373.0934,94.8438 L372.8159,95.2438 L373.0859,95.6438 L373.1776,96.0438 L372.6829,96.4438 L373,96.8438 " fill="none" style="stroke:#000000;stroke-width:1.0;"/><text fill="#000000" font-family="sans-serif" font-size="12" lengthAdjust="spacing" textLength="38.1035" x="6" y="112.9824">&#1040;&#1076;&#1088;&#1077;&#1089;</text><text fill="#000000" font-family="sans-serif" font-size="12" lengthAdjust="spacing" textLength="70.8047" x="268" y="112.9824">insert value</text><path d="M266,115.8125 L266,116.0927 L275.7273,115.2601 L285.4545,116.0702 L295.1818,116.3454 L304.9091,114.8613 L314.6364,115.7089 L324.3636,115.2438 L334.0909,115.3012 L343.8182,115.7216 L353.5455,114.8907 L363.2727,116.5507 L373,115.8125 " fill="none" style="stroke:#000000;stroke-width:1.0;"/><path d="M266,112.8125 L266.0934,112.8125 L265.8159,113.2125 L266.0859,113.6125 L266.1776,114.0125 L265.6829,114.4125 L266,114.8125 " fill="none" style="stroke:#000000;stroke-width:1.0;"/><path d="M373,112.8125 L373.0934,112.8125 L372.8159,113.2125 L373.0859,113.6125 L373.1776,114.0125 L372.6829,114.4125 L373,114.8125 " fill="none" style="stroke:#000000;stroke-width:1.0;"/><path d="M6,123.3125 L6,123.5927 L15.9231,122.7601 L25.8462,123.5702 L35.7692,123.8454 L45.6923,122.3613 L55.6154,123.2089 L65.5385,122.7438 L75.4615,122.8012 L85.3846,123.2216 L95.3077,122.3907 L105.2308,124.0507 L115.1538,122.4721 L125.0769,123.0488 L135,123.8884 L144.9231,123.1981 L154.8462,123.4035 L164.7692,123.2699 L174.6923,123.5505 L184.6154,123.6313 L194.5385,124.0934 L204.4615,124.2072 L214.3846,124.2182 L224.3077,123.652 L234.2308,123.9306 L244.1538,124.2488 L254.0769,122.3509 L264,123.3125 " fill="none" style="stroke:#AAAAAA;stroke-width:1.0;"/><path d="M265,123.3125 L265,123.5927 L275.0909,122.7601 L285.1818,123.5702 L295.2727,123.8454 L305.3636,122.3613 L315.4545,123.2089 L325.5455,122.7438 L335.6364,122.8012 L345.7273,123.2216 L355.8182,122.3907 L365.9091,124.0507 L376,123.3125 " fill="none" style="stroke:#AAAAAA;stroke-width:1.0;"/><text fill="#000000" font-family="sans-serif" font-size="12" lengthAdjust="spacing" textLength="40.9395" x="6" y="138.9512">&#1057;&#1091;&#1084;&#1084;&#1072;</text><text fill="#000000" font-family="sans-serif" font-size="12" lengthAdjust="spacing" textLength="70.8047" x="268" y="138.9512">insert value</text><path d="M266,141.7813 L266,142.0615 L275.7273,141.2288 L285.4545,142.039 L295.1818,142.3142 L304.9091,140.8301 L314.6364,141.6776 L324.3636,141.2126 L334.0909,141.2699 L343.8182,141.6904 L353.5455,140.8594 L363.2727,142.5194 L373,141.7813 " fill="none" style="stroke:#000000;stroke-width:1.0;"/><path d="M266,138.7813 L266.0934,138.7813 L265.8159,139.1813 L266.0859,139.5813 L266.1776,139.9813 L265.6829,140.3813 L266,140.7813 " fill="none" style="stroke:#000000;stroke-width:1.0;"/><path d="M373,138.7813 L373.0934,138.7813 L372.8159,139.1813 L373.0859,139.5813 L373.1776,139.9813 L372.6829,140.3813 L373,140.7813 " fill="none" style="stroke:#000000;stroke-width:1.0;"/><polygon fill="#EEEEEE" points="13.5,148.2813,13.5,148.4914,23.5833,147.8669,33.6667,148.4745,43.75,148.6809,53.8333,147.5679,63.9167,148.2035,74,147.8548,84.0833,147.8978,94.1667,148.2131,104.25,147.5899,114.3333,148.8349,124.4167,147.651,134.5,148.0835,144.5833,148.7132,154.6667,148.1955,164.75,148.3495,174.8333,148.2493,184.9167,148.4598,195,148.5204,205.0833,148.8669,215.1667,148.9523,225.25,148.9605,235.3333,148.5359,245.4167,148.7448,255.5,148.2813,255.5896,148.4975,256.1151,148.352,257.0008,149.076,257.5835,149.0686,258.3965,149.6172,259.0355,149.7457,258.8831,149.6826,259.3073,150.4441,259.8497,151.2545,259.8992,151.8608,260.2395,152.5876,260.5,153.2813,260.6129,153.2813,260.6387,154.875,260.4987,156.4688,260.5957,158.0625,260.3092,159.6563,260.5,161.25,260.5876,161.2863,260.3759,162.027,260.0511,162.7209,259.8101,163.4495,259.1797,164.0168,259.0355,164.7855,258.9523,164.5847,258.2492,164.8871,257.6138,165.3532,256.8891,165.6037,256.294,166.167,255.5,166.25,255.5,166.0753,245.4167,165.9069,235.3333,166.4783,225.25,165.5832,215.1667,165.7309,205.0833,166.899,195,166.6857,184.9167,166.9845,174.8333,165.9282,164.75,166.5692,154.6667,166.8404,144.5833,165.7776,134.5,166.1541,124.4167,166.376,114.3333,166.9018,104.25,166.2458,94.1667,166.7126,84.0833,165.6962,74,165.5727,63.9167,166.7536,53.8333,165.5331,43.75,166.759,33.6667,166.4566,23.5833,165.9821,13.5,166.25,13.4549,166.1411,12.8514,166.0984,12.0476,165.572,11.4542,165.5536,10.6011,164.9082,9.9645,164.7855,10.1546,164.8643,9.8207,164.1402,9.4541,163.4026,9.1003,162.6702,9.0167,162.0498,8.5,161.25,8.7045,161.25,8.5564,159.6563,8.5894,158.0625,8.4566,156.4688,8.7388,154.875,8.5,153.2813,8.5477,153.301,8.846,152.5962,8.8984,151.7894,9.2539,151.1082,9.835,150.5205,9.9645,149.7457,10.0193,149.8781,10.6661,149.4396,11.3376,149.0607,12.0579,148.7996,12.7054,148.3628,13.5,148.2813" style="stroke:#000000;stroke-width:2.5;"/><text fill="#000000" font-family="sans-serif" font-size="12" lengthAdjust="spacing" textLength="221.1563" x="23.9219" y="161.4199">&#1055;&#1088;&#1086;&#1074;&#1077;&#1088;&#1080;&#1090;&#1100; &#1080; &#1088;&#1072;&#1089;&#1089;&#1095;&#1080;&#1090;&#1072;&#1090;&#1100; &#1082;&#1086;&#1084;&#1080;&#1089;&#1089;&#1080;&#1102;</text><path d="M5,5 L5,5.2802 L14.9615,4.4476 L24.9231,5.2577 L34.8846,5.5329 L44.8462,4.0488 L54.8077,4.8964 L64.7692,4.4313 L74.7308,4.4887 L84.6923,4.9091 L94.6538,4.0782 L104.6154,5.7382 L114.5769,4.1596 L124.5385,4.7363 L134.5,5.5759 L144.4615,4.8856 L154.4231,5.091 L164.3846,4.9574 L174.3462,5.238 L184.3077,5.3188 L194.2692,5.7809 L204.2308,5.8947 L214.1923,5.9057 L224.1538,5.3395 L234.1154,5.6181 L244.0769,5.9363 L254.0385,4.0384 L264,5 " fill="none" style="stroke:#000000;stroke-width:1.0;"/><path d="M264,5 L264,5.2802 L274.1818,4.4476 L284.3636,5.2577 L294.5455,5.5329 L304.7273,4.0488 L314.9091,4.8964 L325.0909,4.4313 L335.2727,4.4887 L345.4545,4.9091 L355.6364,4.0782 L365.8182,5.7382 L376,5 " fill="none" style="stroke:#000000;stroke-width:1.0;"/><path d="M5,169.75 L5,170.0302 L14.9615,169.1976 L24.9231,170.0077 L34.8846,170.2829 L44.8462,168.7988 L54.8077,169.6464 L64.7692,169.1813 L74.7308,169.2387 L84.6923,169.6591 L94.6538,168.8282 L104.6154,170.4882 L114.5769,168.9096 L124.5385,169.4863 L134.5,170.3259 L144.4615,169.6356 L154.4231,169.841 L164.3846,169.7074 L174.3462,169.988 L184.3077,170.0688 L194.2692,170.5309 L204.2308,170.6447 L214.1923,170.6557 L224.1538,170.0895 L234.1154,170.3681 L244.0769,170.6863 L254.0385,168.7884 L264,169.75 " fill="none" style="stroke:#000000;stroke-width:1.0;"/><path d="M264,169.75 L264,170.0302 L274.1818,169.1976 L284.3636,170.0077 L294.5455,170.2829 L304.7273,168.7988 L314.9091,169.6464 L325.0909,169.1813 L335.2727,169.2387 L345.4545,169.6591 L355.6364,168.8282 L365.8182,170.4882 L376,169.75 " fill="none" style="stroke:#000000;stroke-width:1.0;"/><path d="M5,5 L5.0934,5 L4.8159,8.1938 L5.0859,11.3875 L5.1776,14.5813 L4.6829,17.775 L5,20.9688 " fill="none" style="stroke:#000000;stroke-width:1.0;"/><path d="M376,28.9688 L376.0934,28.9688 L375.8159,32.5625 L376.0859,36.1563 L376.1776,39.75 L375.6829,43.3438 L376,46.9375 " fill="none" style="stroke:#000000;stroke-width:1.0;"/><path d="M376,5 L376.0934,5 L375.8159,8.1938 L376.0859,11.3875 L376.1776,14.5813 L375.6829,17.775 L376,20.9688 " fill="none" style="stroke:#000000;stroke-width:1.0;"/><path d="M5,144.7813 L5.0934,144.7813 L4.8159,149.775 L5.0859,154.7688 L5.1776,159.7625 L4.6829,164.7563 L5,169.75 " fill="none" style="stroke:#000000;stroke-width:1.0;"/><path d="M5,118.8125 L5.0934,118.8125 L4.8159,120.4125 L5.0859,122.0125 L5.1776,123.6125 L4.6829,125.2125 L5,126.8125 " fill="none" style="stroke:#000000;stroke-width:1.0;"/><path d="M376,144.7813 L376.0934,144.7813 L375.8159,149.775 L376.0859,154.7688 L376.1776,159.7625 L375.6829,164.7563 L376,169.75 " fill="none" style="stroke:#000000;stroke-width:1.0;"/><path d="M5,82.875 L5.0934,82.875 L4.8159,86.4688 L5.0859,90.0625 L5.1776,93.6563 L4.6829,97.25 L5,100.8438 " fill="none" style="stroke:#000000;stroke-width:1.0;"/><path d="M376,118.8125 L376.0934,118.8125 L375.8159,120.4125 L376.0859,122.0125 L376.1776,123.6125 L375.6829,125.2125 L376,126.8125 " fill="none" style="stroke:#000000;stroke-width:1.0;"/><path d="M5,46.9375 L5.0934,46.9375 L4.8159,50.5313 L5.0859,54.125 L5.1776,57.7188 L4.6829,61.3125 L5,64.9063 " fill="none" style="stroke:#000000;stroke-width:1.0;"/><path d="M376,82.875 L376.0934,82.875 L375.8159,86.4688 L376.0859,90.0625 L376.1776,93.6563 L375.6829,97.25 L376,100.8438 " fill="none" style="stroke:#000000;stroke-width:1.0;"/><path d="M5,20.9688 L5.0934,20.9688 L4.8159,22.5688 L5.0859,24.1688 L5.1776,25.7688 L4.6829,27.3688 L5,28.9688 " fill="none" style="stroke:#000000;stroke-width:1.0;"/><path d="M376,46.9375 L376.0934,46.9375 L375.8159,50.5313 L376.0859,54.125 L376.1776,57.7188 L375.6829,61.3125 L376,64.9063 " fill="none" style="stroke:#000000;stroke-width:1.0;"/><path d="M376,20.9688 L376.0934,20.9688 L375.8159,22.5688 L376.0859,24.1688 L376.1776,25.7688 L375.6829,27.3688 L376,28.9688 " fill="none" style="stroke:#000000;stroke-width:1.0;"/><path d="M5,126.8125 L5.0934,126.8125 L4.8159,130.4063 L5.0859,134 L5.1776,137.5938 L4.6829,141.1875 L5,144.7813 " fill="none" style="stroke:#000000;stroke-width:1.0;"/><path d="M5,100.8438 L5.0934,100.8438 L4.8159,104.4375 L5.0859,108.0313 L5.1776,111.625 L4.6829,115.2188 L5,118.8125 " fill="none" style="stroke:#000000;stroke-width:1.0;"/><path d="M376,126.8125 L376.0934,126.8125 L375.8159,130.4063 L376.0859,134 L376.1776,137.5938 L375.6829,141.1875 L376,144.7813 " fill="none" style="stroke:#000000;stroke-width:1.0;"/><path d="M5,64.9063 L5.0934,64.9063 L4.8159,68.5 L5.0859,72.0938 L5.1776,75.6875 L4.6829,79.2813 L5,82.875 " fill="none" style="stroke:#000000;stroke-width:1.0;"/><path d="M376,100.8438 L376.0934,100.8438 L375.8159,104.4375 L376.0859,108.0313 L376.1776,111.625 L375.6829,115.2188 L376,118.8125 " fill="none" style="stroke:#000000;stroke-width:1.0;"/><path d="M5,28.9688 L5.0934,28.9688 L4.8159,32.5625 L5.0859,36.1563 L5.1776,39.75 L4.6829,43.3438 L5,46.9375 " fill="none" style="stroke:#000000;stroke-width:1.0;"/><path d="M376,64.9063 L376.0934,64.9063 L375.8159,68.5 L376.0859,72.0938 L376.1776,75.6875 L375.6829,79.2813 L376,82.875 " fill="none" style="stroke:#000000;stroke-width:1.0;"/><!--SRC=[RL5FInj15B_FftXuKknAr11qQOgOj49Cg9ZgHNgO9jDqw6PMPcSZnHHC57jeAJs954Hily1Yax8cSViLtdoZljrOIcakm-px_Nsp6u7XsWJSC-nuaGLlfJhachVX3LVD8osD4GgC3WLZm02_snwExId-mCXztF0zNxkRNYYUu3UymGkWunuZlCDVEBGdcE3j8rXbnMAtM2Jn9GvmYFUsZx4zmnX76D4ziIT0_77sCSIVv92GVmB4Jd14OPC7LTIT0wa2eGrqEANEaUTNucGOCVjq-uXtaFcCgS5P2iuGNT5yaZO4eiNsdEYt3w6sPpyGCZliEjig9khWtygpo5zmGEIXxVs7EKxNSOXna-qscQ7kmW5UJnzm6cdxzXDW37IFg69QCavBJkUZR9yu1UZy_9Anzsn3g6RsLzcEnvNPgrMX8tGWVGNBIokvbVnIORxE3LH23t85oAsxotbtTGtsNfGWXHVO_DPE5G8_r0q1JHaOBL-5XlGBhC8x77P3PMHRkF3yKAXAUVlF09wgZjI-QWjbM6M_zfTGo3kRqa1TQ6e2-pLM5gzvw1bIDFocL2sNqfyvQwpALIlaBV8MYfLyyjNl2Al_1W00]--></g></svg>